<svg width="300" height="300" viewBox="0 0 300 300" fill="none" xmlns="http://www.w3.org/2000/svg">
<mask id="mask0_297_198" style="mask-type:alpha" maskUnits="userSpaceOnUse" x="30" y="30" width="240" height="240">
<path d="M30 83.6842C30 54.0352 54.0352 30 83.6842 30H216.316C245.965 30 270 54.0352 270 83.6842V216.316C270 245.965 245.965 270 216.316 270H83.6842C54.0352 270 30 245.965 30 216.316V83.6842Z" fill="#744FDE"/>
</mask>
<g mask="url(#mask0_297_198)">
<rect x="29" y="28" width="241" height="245" fill="#303030"/>
<rect x="30" y="30" width="240" height="240" fill="url(#paint0_linear_297_198)" fill-opacity="0.4"/>
<g style="mix-blend-mode:overlay" filter="url(#filter0_f_297_198)">
<circle cx="42" cy="17" r="55" fill="white" fill-opacity="0.5"/>
</g>
<path d="M74.4769 92V69.4545H77.8786V89.0717H88.0945V92H74.4769ZM98.8333 92.3413C97.248 92.3413 95.8646 91.978 94.6831 91.2514C93.5015 90.5249 92.5841 89.5084 91.9309 88.2021C91.2778 86.8957 90.9512 85.3692 90.9512 83.6225C90.9512 81.8685 91.2778 80.3346 91.9309 79.021C92.5841 77.7073 93.5015 76.6871 94.6831 75.9606C95.8646 75.234 97.248 74.8707 98.8333 74.8707C100.419 74.8707 101.802 75.234 102.983 75.9606C104.165 76.6871 105.082 77.7073 105.736 79.021C106.389 80.3346 106.715 81.8685 106.715 83.6225C106.715 85.3692 106.389 86.8957 105.736 88.2021C105.082 89.5084 104.165 90.5249 102.983 91.2514C101.802 91.978 100.419 92.3413 98.8333 92.3413ZM98.8443 89.5781C99.8717 89.5781 100.723 89.3066 101.398 88.7635C102.073 88.2204 102.573 87.4975 102.895 86.5948C103.226 85.6921 103.391 84.6977 103.391 83.6115C103.391 82.5327 103.226 81.5419 102.895 80.6392C102.573 79.7292 102.073 78.9989 101.398 78.4485C100.723 77.8981 99.8717 77.6229 98.8443 77.6229C97.8095 77.6229 96.9508 77.8981 96.2683 78.4485C95.5931 78.9989 95.0904 79.7292 94.7601 80.6392C94.4372 81.5419 94.2757 82.5327 94.2757 83.6115C94.2757 84.6977 94.4372 85.6921 94.7601 86.5948C95.0904 87.4975 95.5931 88.2204 96.2683 88.7635C96.9508 89.3066 97.8095 89.5781 98.8443 89.5781ZM110.389 92V75.0909H113.571V77.777H113.747C114.055 76.8669 114.598 76.1514 115.376 75.6303C116.162 75.1019 117.05 74.8377 118.04 74.8377C118.246 74.8377 118.488 74.8451 118.767 74.8597C119.053 74.8744 119.277 74.8928 119.438 74.9148V78.0632C119.306 78.0265 119.072 77.9862 118.734 77.9421C118.396 77.8907 118.059 77.8651 117.721 77.8651C116.943 77.8651 116.25 78.0302 115.641 78.3604C115.039 78.6834 114.562 79.1347 114.209 79.7145C113.857 80.2869 113.681 80.9401 113.681 81.674V92H110.389ZM128.969 92.3413C127.303 92.3413 125.868 91.9853 124.665 91.2734C123.469 90.5542 122.544 89.5451 121.891 88.2461C121.245 86.9397 120.922 85.4096 120.922 83.6555C120.922 81.9235 121.245 80.397 121.891 79.076C122.544 77.755 123.454 76.7238 124.621 75.9826C125.795 75.2414 127.167 74.8707 128.738 74.8707C129.692 74.8707 130.617 75.0285 131.512 75.3441C132.407 75.6597 133.211 76.1551 133.923 76.8303C134.635 77.5054 135.196 78.3825 135.607 79.4613C136.018 80.5328 136.224 81.8355 136.224 83.3693V84.5362H122.782V82.0703H132.998C132.998 81.2043 132.822 80.4374 132.47 79.7695C132.118 79.0943 131.622 78.5623 130.984 78.1733C130.353 77.7843 129.611 77.5898 128.76 77.5898C127.835 77.5898 127.028 77.8174 126.338 78.2724C125.656 78.7201 125.127 79.3072 124.753 80.0337C124.386 80.753 124.202 81.5346 124.202 82.3786V84.305C124.202 85.4353 124.401 86.3967 124.797 87.1893C125.201 87.9819 125.762 88.5874 126.481 89.0057C127.2 89.4167 128.041 89.6222 129.002 89.6222C129.626 89.6222 130.195 89.5341 130.708 89.358C131.222 89.1745 131.666 88.9029 132.04 88.5433C132.415 88.1837 132.701 87.7397 132.899 87.2113L136.015 87.7727C135.765 88.6901 135.317 89.4937 134.672 90.1836C134.033 90.8661 133.229 91.3982 132.261 91.7798C131.299 92.1541 130.202 92.3413 128.969 92.3413ZM139.876 92V75.0909H143.035V77.843H143.244C143.597 76.911 144.173 76.1844 144.973 75.6634C145.773 75.1349 146.73 74.8707 147.846 74.8707C148.976 74.8707 149.923 75.1349 150.686 75.6634C151.457 76.1918 152.026 76.9183 152.392 77.843H152.569C152.972 76.9403 153.614 76.2211 154.495 75.6854C155.376 75.1423 156.425 74.8707 157.644 74.8707C159.177 74.8707 160.429 75.3514 161.397 76.3129C162.374 77.2743 162.862 78.7237 162.862 80.6612V92H159.57V80.9695C159.57 79.8246 159.258 78.9953 158.634 78.4815C158.011 77.9678 157.266 77.7109 156.4 77.7109C155.328 77.7109 154.495 78.0412 153.901 78.7017C153.306 79.3549 153.009 80.1952 153.009 81.2227V92H149.728V80.7603C149.728 79.8429 149.442 79.1053 148.87 78.5476C148.297 77.9898 147.552 77.7109 146.635 77.7109C146.011 77.7109 145.435 77.8761 144.907 78.2063C144.386 78.5292 143.964 78.9806 143.641 79.5604C143.325 80.1402 143.167 80.8117 143.167 81.5749V92H139.876ZM74.2127 123V106.091H77.5043V123H74.2127ZM75.875 103.482C75.3026 103.482 74.8108 103.291 74.3999 102.909C73.9962 102.52 73.7944 102.058 73.7944 101.522C73.7944 100.979 73.9962 100.517 74.3999 100.135C74.8108 99.7463 75.3026 99.5518 75.875 99.5518C76.4474 99.5518 76.9355 99.7463 77.3391 100.135C77.7501 100.517 77.9556 100.979 77.9556 101.522C77.9556 102.058 77.7501 102.52 77.3391 102.909C76.9355 103.291 76.4474 103.482 75.875 103.482ZM81.9324 129.341V106.091H85.1469V108.832H85.4221C85.613 108.48 85.8882 108.072 86.2478 107.61C86.6074 107.148 87.1064 106.744 87.7449 106.399C88.3834 106.047 89.2274 105.871 90.2769 105.871C91.642 105.871 92.8602 106.216 93.9317 106.906C95.0032 107.595 95.8435 108.59 96.4527 109.889C97.0692 111.188 97.3774 112.751 97.3774 114.578C97.3774 116.406 97.0728 117.973 96.4637 119.279C95.8546 120.578 95.0179 121.58 93.9537 122.284C92.8896 122.982 91.675 123.33 90.3099 123.33C89.2825 123.33 88.4421 123.158 87.789 122.813C87.1431 122.468 86.6367 122.064 86.2698 121.602C85.9028 121.14 85.6203 120.729 85.4221 120.369H85.224V129.341H81.9324ZM85.1579 114.545C85.1579 115.734 85.3304 116.777 85.6753 117.672C86.0203 118.567 86.5193 119.268 87.1725 119.775C87.8257 120.274 88.6256 120.523 89.5724 120.523C90.5558 120.523 91.3778 120.263 92.0383 119.741C92.6988 119.213 93.1978 118.498 93.5354 117.595C93.8804 116.692 94.0528 115.676 94.0528 114.545C94.0528 113.43 93.884 112.428 93.5464 111.54C93.2162 110.652 92.7171 109.951 92.0493 109.438C91.3888 108.924 90.5631 108.667 89.5724 108.667C88.6183 108.667 87.811 108.913 87.1505 109.404C86.4973 109.896 86.0019 110.582 85.6643 111.463C85.3267 112.344 85.1579 113.371 85.1579 114.545ZM113.736 110.219L110.753 110.748C110.628 110.366 110.43 110.003 110.158 109.658C109.894 109.313 109.534 109.03 109.079 108.81C108.624 108.59 108.056 108.48 107.373 108.48C106.441 108.48 105.663 108.689 105.039 109.107C104.416 109.518 104.104 110.05 104.104 110.703C104.104 111.269 104.313 111.724 104.731 112.069C105.149 112.413 105.825 112.696 106.757 112.916L109.443 113.533C110.999 113.892 112.158 114.446 112.921 115.195C113.685 115.944 114.066 116.916 114.066 118.112C114.066 119.125 113.773 120.028 113.186 120.82C112.606 121.606 111.795 122.222 110.753 122.67C109.718 123.117 108.518 123.341 107.153 123.341C105.259 123.341 103.715 122.938 102.518 122.13C101.322 121.316 100.588 120.16 100.317 118.663L103.498 118.178C103.696 119.008 104.104 119.635 104.72 120.061C105.337 120.479 106.14 120.688 107.131 120.688C108.21 120.688 109.072 120.464 109.718 120.017C110.364 119.562 110.687 119.008 110.687 118.354C110.687 117.826 110.489 117.382 110.092 117.022C109.703 116.663 109.105 116.391 108.298 116.208L105.436 115.58C103.858 115.221 102.691 114.648 101.935 113.863C101.186 113.078 100.812 112.083 100.812 110.88C100.812 109.882 101.091 109.008 101.649 108.26C102.206 107.511 102.977 106.928 103.96 106.509C104.944 106.084 106.07 105.871 107.34 105.871C109.168 105.871 110.606 106.267 111.655 107.06C112.705 107.845 113.398 108.898 113.736 110.219ZM128.397 115.988V106.091H131.699V123H128.463V120.072H128.287C127.898 120.974 127.274 121.727 126.415 122.328C125.564 122.923 124.503 123.22 123.234 123.22C122.147 123.22 121.186 122.982 120.349 122.505C119.52 122.02 118.867 121.305 118.39 120.358C117.92 119.411 117.685 118.241 117.685 116.846V106.091H120.977V116.45C120.977 117.602 121.296 118.52 121.935 119.202C122.573 119.885 123.402 120.226 124.423 120.226C125.039 120.226 125.652 120.072 126.261 119.763C126.877 119.455 127.388 118.989 127.791 118.365C128.202 117.742 128.404 116.949 128.397 115.988ZM136.122 123V106.091H139.281V108.843H139.491C139.843 107.911 140.419 107.184 141.219 106.663C142.019 106.135 142.977 105.871 144.092 105.871C145.222 105.871 146.169 106.135 146.932 106.663C147.703 107.192 148.272 107.918 148.639 108.843H148.815C149.218 107.94 149.861 107.221 150.741 106.685C151.622 106.142 152.671 105.871 153.89 105.871C155.424 105.871 156.675 106.351 157.644 107.313C158.62 108.274 159.108 109.724 159.108 111.661V123H155.816V111.969C155.816 110.825 155.504 109.995 154.88 109.482C154.257 108.968 153.512 108.711 152.646 108.711C151.574 108.711 150.741 109.041 150.147 109.702C149.552 110.355 149.255 111.195 149.255 112.223V123H145.975V111.76C145.975 110.843 145.688 110.105 145.116 109.548C144.543 108.99 143.799 108.711 142.881 108.711C142.257 108.711 141.681 108.876 141.153 109.206C140.632 109.529 140.21 109.981 139.887 110.56C139.571 111.14 139.413 111.812 139.413 112.575V123H136.122ZM80.5426 154.33C79.1776 154.33 77.9593 153.982 76.8878 153.284C75.8236 152.58 74.987 151.578 74.3778 150.279C73.776 148.973 73.4751 147.406 73.4751 145.578C73.4751 143.751 73.7797 142.188 74.3888 140.889C75.0053 139.59 75.8493 138.595 76.9208 137.906C77.9923 137.216 79.2069 136.871 80.5646 136.871C81.6141 136.871 82.4581 137.047 83.0966 137.399C83.7424 137.744 84.2415 138.148 84.5938 138.61C84.9534 139.072 85.2322 139.48 85.4304 139.832H85.6286V131.455H88.9201V154H85.7056V151.369H85.4304C85.2322 151.729 84.946 152.14 84.5717 152.602C84.2048 153.064 83.6984 153.468 83.0526 153.813C82.4067 154.158 81.5701 154.33 80.5426 154.33ZM81.2692 151.523C82.2159 151.523 83.0159 151.274 83.669 150.775C84.3295 150.268 84.8286 149.567 85.1662 148.672C85.5111 147.777 85.6836 146.734 85.6836 145.545C85.6836 144.371 85.5148 143.344 85.1772 142.463C84.8396 141.582 84.3442 140.896 83.6911 140.404C83.0379 139.913 82.2306 139.667 81.2692 139.667C80.2784 139.667 79.4528 139.924 78.7923 140.438C78.1317 140.951 77.6327 141.652 77.2951 142.54C76.9648 143.428 76.7997 144.43 76.7997 145.545C76.7997 146.676 76.9685 147.692 77.3061 148.595C77.6437 149.498 78.1428 150.213 78.8033 150.741C79.4711 151.263 80.2931 151.523 81.2692 151.523ZM100.741 154.341C99.1553 154.341 97.7719 153.978 96.5903 153.251C95.4087 152.525 94.4913 151.508 93.8382 150.202C93.185 148.896 92.8584 147.369 92.8584 145.623C92.8584 143.868 93.185 142.335 93.8382 141.021C94.4913 139.707 95.4087 138.687 96.5903 137.961C97.7719 137.234 99.1553 136.871 100.741 136.871C102.326 136.871 103.709 137.234 104.891 137.961C106.072 138.687 106.99 139.707 107.643 141.021C108.296 142.335 108.623 143.868 108.623 145.623C108.623 147.369 108.296 148.896 107.643 150.202C106.99 151.508 106.072 152.525 104.891 153.251C103.709 153.978 102.326 154.341 100.741 154.341ZM100.752 151.578C101.779 151.578 102.63 151.307 103.305 150.763C103.981 150.22 104.48 149.498 104.803 148.595C105.133 147.692 105.298 146.698 105.298 145.612C105.298 144.533 105.133 143.542 104.803 142.639C104.48 141.729 103.981 140.999 103.305 140.449C102.63 139.898 101.779 139.623 100.752 139.623C99.7167 139.623 98.858 139.898 98.1755 140.449C97.5003 140.999 96.9976 141.729 96.6673 142.639C96.3444 143.542 96.183 144.533 96.183 145.612C96.183 146.698 96.3444 147.692 96.6673 148.595C96.9976 149.498 97.5003 150.22 98.1755 150.763C98.858 151.307 99.7167 151.578 100.752 151.578ZM115.588 131.455V154H112.297V131.455H115.588ZM127.139 154.341C125.554 154.341 124.17 153.978 122.989 153.251C121.807 152.525 120.89 151.508 120.237 150.202C119.583 148.896 119.257 147.369 119.257 145.623C119.257 143.868 119.583 142.335 120.237 141.021C120.89 139.707 121.807 138.687 122.989 137.961C124.17 137.234 125.554 136.871 127.139 136.871C128.724 136.871 130.108 137.234 131.289 137.961C132.471 138.687 133.388 139.707 134.041 141.021C134.694 142.335 135.021 143.868 135.021 145.623C135.021 147.369 134.694 148.896 134.041 150.202C133.388 151.508 132.471 152.525 131.289 153.251C130.108 153.978 128.724 154.341 127.139 154.341ZM127.15 151.578C128.177 151.578 129.029 151.307 129.704 150.763C130.379 150.22 130.878 149.498 131.201 148.595C131.531 147.692 131.696 146.698 131.696 145.612C131.696 144.533 131.531 143.542 131.201 142.639C130.878 141.729 130.379 140.999 129.704 140.449C129.029 139.898 128.177 139.623 127.15 139.623C126.115 139.623 125.256 139.898 124.574 140.449C123.899 140.999 123.396 141.729 123.066 142.639C122.743 143.542 122.581 144.533 122.581 145.612C122.581 146.698 122.743 147.692 123.066 148.595C123.396 149.498 123.899 150.22 124.574 150.763C125.256 151.307 126.115 151.578 127.15 151.578ZM138.695 154V137.091H141.877V139.777H142.053C142.361 138.867 142.904 138.151 143.682 137.63C144.467 137.102 145.355 136.838 146.346 136.838C146.552 136.838 146.794 136.845 147.073 136.86C147.359 136.874 147.583 136.893 147.744 136.915V140.063C147.612 140.027 147.377 139.986 147.04 139.942C146.702 139.891 146.364 139.865 146.027 139.865C145.249 139.865 144.555 140.03 143.946 140.36C143.344 140.683 142.867 141.135 142.515 141.714C142.163 142.287 141.987 142.94 141.987 143.674V154H138.695ZM171.468 141.219L168.484 141.748C168.359 141.366 168.161 141.003 167.89 140.658C167.626 140.313 167.266 140.03 166.811 139.81C166.356 139.59 165.787 139.48 165.105 139.48C164.173 139.48 163.395 139.689 162.771 140.107C162.147 140.518 161.835 141.05 161.835 141.703C161.835 142.269 162.044 142.724 162.463 143.069C162.881 143.413 163.556 143.696 164.488 143.916L167.174 144.533C168.73 144.892 169.89 145.446 170.653 146.195C171.416 146.944 171.798 147.916 171.798 149.112C171.798 150.125 171.504 151.028 170.917 151.82C170.337 152.606 169.526 153.222 168.484 153.67C167.449 154.117 166.249 154.341 164.884 154.341C162.991 154.341 161.446 153.938 160.25 153.13C159.054 152.316 158.32 151.16 158.048 149.663L161.23 149.178C161.428 150.008 161.835 150.635 162.452 151.061C163.068 151.479 163.872 151.688 164.862 151.688C165.941 151.688 166.804 151.464 167.449 151.017C168.095 150.562 168.418 150.008 168.418 149.354C168.418 148.826 168.22 148.382 167.824 148.022C167.435 147.663 166.837 147.391 166.029 147.208L163.167 146.58C161.589 146.221 160.422 145.648 159.666 144.863C158.918 144.078 158.544 143.083 158.544 141.88C158.544 140.882 158.822 140.008 159.38 139.26C159.938 138.511 160.709 137.928 161.692 137.509C162.675 137.084 163.802 136.871 165.072 136.871C166.899 136.871 168.337 137.267 169.387 138.06C170.436 138.845 171.13 139.898 171.468 141.219ZM175.417 154V137.091H178.708V154H175.417ZM177.079 134.482C176.507 134.482 176.015 134.291 175.604 133.909C175.2 133.52 174.998 133.058 174.998 132.522C174.998 131.979 175.2 131.517 175.604 131.135C176.015 130.746 176.507 130.552 177.079 130.552C177.652 130.552 178.14 130.746 178.543 131.135C178.954 131.517 179.16 131.979 179.16 132.522C179.16 133.058 178.954 133.52 178.543 133.909C178.14 134.291 177.652 134.482 177.079 134.482ZM191.03 137.091V139.733H181.794V137.091H191.03ZM184.27 133.04H187.562V149.035C187.562 149.674 187.657 150.154 187.848 150.477C188.039 150.793 188.285 151.009 188.586 151.127C188.894 151.237 189.228 151.292 189.588 151.292C189.852 151.292 190.083 151.274 190.281 151.237C190.479 151.2 190.633 151.171 190.743 151.149L191.338 153.868C191.147 153.941 190.876 154.015 190.523 154.088C190.171 154.169 189.731 154.213 189.202 154.22C188.336 154.235 187.529 154.081 186.78 153.758C186.032 153.435 185.426 152.936 184.964 152.261C184.502 151.585 184.27 150.738 184.27 149.718V133.04ZM79.1335 185.374C78.062 185.374 77.0933 185.176 76.2273 184.78C75.3613 184.376 74.6751 183.793 74.1687 183.029C73.6696 182.266 73.4201 181.33 73.4201 180.222C73.4201 179.268 73.6036 178.483 73.9705 177.866C74.3375 177.25 74.8329 176.762 75.4567 176.402C76.0805 176.043 76.7777 175.771 77.5483 175.588C78.3189 175.404 79.1042 175.265 79.9041 175.169C80.9169 175.052 81.7389 174.957 82.37 174.883C83.0012 174.802 83.4599 174.674 83.7461 174.498C84.0323 174.322 84.1754 174.036 84.1754 173.639V173.562C84.1754 172.601 83.9039 171.856 83.3608 171.327C82.825 170.799 82.0251 170.535 80.9609 170.535C79.8527 170.535 78.9794 170.781 78.3409 171.272C77.7098 171.757 77.2731 172.296 77.0309 172.891L73.9375 172.186C74.3045 171.159 74.8402 170.329 75.5447 169.698C76.2566 169.06 77.0749 168.597 77.9996 168.311C78.9244 168.018 79.8968 167.871 80.9169 167.871C81.5921 167.871 82.3076 167.951 83.0636 168.113C83.8268 168.267 84.5387 168.553 85.1992 168.972C85.8671 169.39 86.4138 169.988 86.8395 170.766C87.2652 171.537 87.478 172.538 87.478 173.771V185H84.2635V182.688H84.1314C83.9186 183.114 83.5993 183.532 83.1737 183.943C82.748 184.354 82.2012 184.695 81.5334 184.967C80.8655 185.239 80.0656 185.374 79.1335 185.374ZM79.8491 182.732C80.7591 182.732 81.5371 182.552 82.1829 182.193C82.8361 181.833 83.3314 181.364 83.669 180.784C84.014 180.197 84.1864 179.569 84.1864 178.901V176.722C84.069 176.839 83.8415 176.949 83.5039 177.052C83.1737 177.147 82.7957 177.232 82.37 177.305C81.9444 177.371 81.5297 177.433 81.1261 177.492C80.7224 177.544 80.3848 177.588 80.1133 177.624C79.4748 177.705 78.8913 177.841 78.3629 178.032C77.8419 178.222 77.4235 178.498 77.108 178.857C76.7997 179.21 76.6456 179.679 76.6456 180.266C76.6456 181.081 76.9465 181.697 77.5483 182.116C78.1501 182.527 78.917 182.732 79.8491 182.732ZM91.8621 185V168.091H95.0216V170.843H95.2307C95.583 169.911 96.1591 169.184 96.9591 168.663C97.759 168.135 98.7168 167.871 99.8323 167.871C100.963 167.871 101.909 168.135 102.672 168.663C103.443 169.192 104.012 169.918 104.379 170.843H104.555C104.959 169.94 105.601 169.221 106.481 168.685C107.362 168.142 108.412 167.871 109.63 167.871C111.164 167.871 112.415 168.351 113.384 169.313C114.36 170.274 114.848 171.724 114.848 173.661V185H111.556V173.969C111.556 172.825 111.244 171.995 110.621 171.482C109.997 170.968 109.252 170.711 108.386 170.711C107.314 170.711 106.481 171.041 105.887 171.702C105.293 172.355 104.995 173.195 104.995 174.223V185H101.715V173.76C101.715 172.843 101.429 172.105 100.856 171.548C100.284 170.99 99.5387 170.711 98.6214 170.711C97.9975 170.711 97.4214 170.876 96.893 171.206C96.372 171.529 95.95 171.981 95.627 172.56C95.3115 173.14 95.1537 173.812 95.1537 174.575V185H91.8621ZM126.547 185.341C124.881 185.341 123.446 184.985 122.243 184.273C121.047 183.554 120.122 182.545 119.469 181.246C118.823 179.94 118.5 178.41 118.5 176.656C118.5 174.924 118.823 173.397 119.469 172.076C120.122 170.755 121.032 169.724 122.199 168.983C123.373 168.241 124.746 167.871 126.316 167.871C127.27 167.871 128.195 168.029 129.09 168.344C129.986 168.66 130.789 169.155 131.501 169.83C132.213 170.505 132.774 171.382 133.185 172.461C133.596 173.533 133.802 174.835 133.802 176.369V177.536H120.36V175.07H130.576C130.576 174.204 130.4 173.437 130.048 172.77C129.696 172.094 129.2 171.562 128.562 171.173C127.931 170.784 127.189 170.59 126.338 170.59C125.413 170.59 124.606 170.817 123.916 171.272C123.234 171.72 122.705 172.307 122.331 173.034C121.964 173.753 121.781 174.535 121.781 175.379V177.305C121.781 178.435 121.979 179.397 122.375 180.189C122.779 180.982 123.34 181.587 124.059 182.006C124.779 182.417 125.619 182.622 126.58 182.622C127.204 182.622 127.773 182.534 128.287 182.358C128.8 182.174 129.244 181.903 129.619 181.543C129.993 181.184 130.279 180.74 130.477 180.211L133.593 180.773C133.343 181.69 132.895 182.494 132.25 183.184C131.611 183.866 130.808 184.398 129.839 184.78C128.877 185.154 127.78 185.341 126.547 185.341ZM145.347 168.091V170.733H136.111V168.091H145.347ZM138.588 164.04H141.879V180.035C141.879 180.674 141.975 181.154 142.166 181.477C142.356 181.793 142.602 182.009 142.903 182.127C143.211 182.237 143.545 182.292 143.905 182.292C144.169 182.292 144.4 182.274 144.598 182.237C144.797 182.2 144.951 182.171 145.061 182.149L145.655 184.868C145.464 184.941 145.193 185.015 144.841 185.088C144.488 185.169 144.048 185.213 143.52 185.22C142.654 185.235 141.846 185.081 141.098 184.758C140.349 184.435 139.744 183.936 139.281 183.261C138.819 182.585 138.588 181.738 138.588 180.718V164.04ZM151.157 185.209C150.555 185.209 150.038 184.996 149.605 184.571C149.172 184.138 148.955 183.617 148.955 183.007C148.955 182.406 149.172 181.892 149.605 181.466C150.038 181.033 150.555 180.817 151.157 180.817C151.759 180.817 152.276 181.033 152.709 181.466C153.142 181.892 153.358 182.406 153.358 183.007C153.358 183.411 153.256 183.782 153.05 184.119C152.852 184.45 152.588 184.714 152.258 184.912C151.927 185.11 151.56 185.209 151.157 185.209Z" fill="url(#paint1_linear_297_198)"/>
<g style="mix-blend-mode:overlay" filter="url(#filter1_f_297_198)">
<ellipse cx="30" cy="-26" rx="64" ry="62" fill="white"/>
</g>
<g filter="url(#filter2_d_297_198)">
<path d="M75 217C75 211.477 79.4772 207 85 207H199.166L225 233.092V398.999C225 404.522 220.523 408.999 215 408.999H85C79.4771 408.999 75 404.522 75 398.999V217Z" fill="url(#paint2_linear_297_198)"/>
</g>
<rect opacity="0.5" x="97" y="258" width="100" height="4" rx="2" fill="black"/>
<path opacity="0.5" d="M199.445 207L225 232.811H209.445C203.922 232.811 199.445 228.334 199.445 222.811V207Z" fill="#50792B"/>
</g>
<rect opacity="0.5" x="97" y="233" width="66" height="4" rx="2" fill="black"/>
<rect opacity="0.5" x="97" y="245" width="89" height="4" rx="2" fill="black"/>
<defs>
<filter id="filter0_f_297_198" x="-47" y="-72" width="178" height="178" filterUnits="userSpaceOnUse" color-interpolation-filters="sRGB">
<feFlood flood-opacity="0" result="BackgroundImageFix"/>
<feBlend mode="normal" in="SourceGraphic" in2="BackgroundImageFix" result="shape"/>
<feGaussianBlur stdDeviation="17" result="effect1_foregroundBlur_297_198"/>
</filter>
<filter id="filter1_f_297_198" x="-78" y="-132" width="216" height="212" filterUnits="userSpaceOnUse" color-interpolation-filters="sRGB">
<feFlood flood-opacity="0" result="BackgroundImageFix"/>
<feBlend mode="normal" in="SourceGraphic" in2="BackgroundImageFix" result="shape"/>
<feGaussianBlur stdDeviation="22" result="effect1_foregroundBlur_297_198"/>
</filter>
<filter id="filter2_d_297_198" x="51" y="207" width="198" height="266" filterUnits="userSpaceOnUse" color-interpolation-filters="sRGB">
<feFlood flood-opacity="0" result="BackgroundImageFix"/>
<feColorMatrix in="SourceAlpha" type="matrix" values="0 0 0 0 0 0 0 0 0 0 0 0 0 0 0 0 0 0 127 0" result="hardAlpha"/>
<feOffset dy="40"/>
<feGaussianBlur stdDeviation="12"/>
<feComposite in2="hardAlpha" operator="out"/>
<feColorMatrix type="matrix" values="0 0 0 0 0.329412 0 0 0 0 0.494118 0 0 0 0 0.172549 0 0 0 1 0"/>
<feBlend mode="normal" in2="BackgroundImageFix" result="effect1_dropShadow_297_198"/>
<feBlend mode="normal" in="SourceGraphic" in2="effect1_dropShadow_297_198" result="shape"/>
</filter>
<linearGradient id="paint0_linear_297_198" x1="55.5" y1="37.5" x2="255.5" y2="258.5" gradientUnits="userSpaceOnUse">
<stop stop-color="#9EA5A5"/>
<stop offset="0.2" stop-color="#2F2F2F"/>
<stop offset="0.8" stop-color="#2F2F2F"/>
<stop offset="1" stop-color="#AA23AD"/>
</linearGradient>
<linearGradient id="paint1_linear_297_198" x1="97" y1="61.5" x2="157.231" y2="189.892" gradientUnits="userSpaceOnUse">
<stop offset="0.370433" stop-color="white"/>
<stop offset="1" stop-color="white" stop-opacity="0"/>
</linearGradient>
<linearGradient id="paint2_linear_297_198" x1="80" y1="237.5" x2="210.621" y2="210.514" gradientUnits="userSpaceOnUse">
<stop offset="0.113379" stop-color="#C6FFFF"/>
<stop offset="0.812419" stop-color="#A9CDFF"/>
</linearGradient>
</defs>
</svg>
