<svg width="300" height="300" viewBox="0 0 300 300" fill="none" xmlns="http://www.w3.org/2000/svg">
<g filter="url(#filter0_dd_263_30)">
<path d="M60 40C60 34.4772 64.4772 30 70 30H209L240 61V260C240 265.523 235.523 270 230 270H70C64.4772 270 60 265.523 60 260V40Z" fill="url(#paint0_linear_263_30)"/>
</g>
<path d="M209.5 30L240 60.5H219.5C213.977 60.5 209.5 56.0228 209.5 50.5V30Z" fill="#FF7FD4"/>
<path d="M86.0859 99V75H91.1602V94.8164H101.449V99H86.0859ZM112.849 99.3516C111.028 99.3516 109.454 98.9648 108.126 98.1914C106.806 97.4102 105.786 96.3242 105.067 94.9336C104.349 93.5352 103.989 91.9141 103.989 90.0703C103.989 88.2109 104.349 86.5859 105.067 85.1953C105.786 83.7969 106.806 82.7109 108.126 81.9375C109.454 81.1562 111.028 80.7656 112.849 80.7656C114.669 80.7656 116.239 81.1562 117.56 81.9375C118.888 82.7109 119.911 83.7969 120.63 85.1953C121.349 86.5859 121.708 88.2109 121.708 90.0703C121.708 91.9141 121.349 93.5352 120.63 94.9336C119.911 96.3242 118.888 97.4102 117.56 98.1914C116.239 98.9648 114.669 99.3516 112.849 99.3516ZM112.872 95.4844C113.7 95.4844 114.392 95.25 114.946 94.7813C115.501 94.3047 115.919 93.6562 116.2 92.8359C116.489 92.0156 116.634 91.082 116.634 90.0352C116.634 88.9883 116.489 88.0547 116.2 87.2344C115.919 86.4141 115.501 85.7656 114.946 85.2891C114.392 84.8125 113.7 84.5742 112.872 84.5742C112.036 84.5742 111.333 84.8125 110.763 85.2891C110.2 85.7656 109.774 86.4141 109.485 87.2344C109.204 88.0547 109.063 88.9883 109.063 90.0352C109.063 91.082 109.204 92.0156 109.485 92.8359C109.774 93.6562 110.2 94.3047 110.763 94.7813C111.333 95.25 112.036 95.4844 112.872 95.4844ZM124.954 99V81H129.794V84.1406H129.981C130.31 83.0234 130.86 82.1797 131.634 81.6094C132.407 81.0312 133.298 80.7422 134.306 80.7422C134.556 80.7422 134.825 80.7578 135.114 80.7891C135.403 80.8203 135.657 80.8633 135.876 80.918V85.3477C135.642 85.2773 135.317 85.2148 134.903 85.1602C134.489 85.1055 134.11 85.0781 133.767 85.0781C133.032 85.0781 132.376 85.2383 131.798 85.5586C131.228 85.8711 130.774 86.3086 130.438 86.8711C130.11 87.4336 129.946 88.082 129.946 88.8164V99H124.954ZM145.822 99.3516C143.971 99.3516 142.377 98.9766 141.041 98.2266C139.713 97.4687 138.689 96.3984 137.971 95.0156C137.252 93.625 136.893 91.9805 136.893 90.082C136.893 88.2305 137.252 86.6055 137.971 85.207C138.689 83.8086 139.701 82.7187 141.006 81.9375C142.318 81.1562 143.857 80.7656 145.623 80.7656C146.811 80.7656 147.916 80.957 148.939 81.3398C149.971 81.7148 150.869 82.2812 151.635 83.0391C152.408 83.7969 153.01 84.75 153.439 85.8984C153.869 87.0391 154.084 88.375 154.084 89.9062V91.2773H138.885V88.1836H149.385C149.385 87.4648 149.229 86.8281 148.916 86.2734C148.604 85.7187 148.17 85.2852 147.615 84.9727C147.068 84.6523 146.432 84.4922 145.705 84.4922C144.947 84.4922 144.275 84.668 143.689 85.0195C143.111 85.3633 142.658 85.8281 142.33 86.4141C142.002 86.9922 141.834 87.6367 141.826 88.3477V91.2891C141.826 92.1797 141.99 92.9492 142.318 93.5977C142.654 94.2461 143.127 94.7461 143.736 95.0977C144.346 95.4492 145.068 95.625 145.904 95.625C146.459 95.625 146.967 95.5469 147.428 95.3906C147.889 95.2344 148.283 95 148.611 94.6875C148.939 94.375 149.189 93.9922 149.361 93.5391L153.979 93.8438C153.744 94.9531 153.264 95.9219 152.537 96.75C151.818 97.5703 150.889 98.2109 149.748 98.6719C148.615 99.125 147.307 99.3516 145.822 99.3516ZM157.342 99V81H162.1V84.1758H162.311C162.686 83.1211 163.311 82.2891 164.186 81.6797C165.061 81.0703 166.107 80.7656 167.326 80.7656C168.561 80.7656 169.611 81.0742 170.479 81.6914C171.346 82.3008 171.924 83.1289 172.213 84.1758H172.4C172.768 83.1445 173.432 82.3203 174.393 81.7031C175.361 81.0781 176.506 80.7656 177.826 80.7656C179.506 80.7656 180.869 81.3008 181.916 82.3711C182.971 83.4336 183.498 84.9414 183.498 86.8945V99H178.518V87.8789C178.518 86.8789 178.252 86.1289 177.721 85.6289C177.189 85.1289 176.525 84.8789 175.729 84.8789C174.822 84.8789 174.115 85.168 173.607 85.7461C173.1 86.3164 172.846 87.0703 172.846 88.0078V99H168.006V87.7734C168.006 86.8906 167.752 86.1875 167.244 85.6641C166.744 85.1406 166.084 84.8789 165.264 84.8789C164.709 84.8789 164.209 85.0195 163.764 85.3008C163.326 85.5742 162.979 85.9609 162.721 86.4609C162.463 86.9531 162.334 87.5312 162.334 88.1953V99H157.342ZM85.9922 139V121H90.9844V139H85.9922ZM88.5 118.68C87.7578 118.68 87.1211 118.434 86.5898 117.941C86.0664 117.441 85.8047 116.844 85.8047 116.148C85.8047 115.461 86.0664 114.871 86.5898 114.379C87.1211 113.879 87.7578 113.629 88.5 113.629C89.2422 113.629 89.875 113.879 90.3984 114.379C90.9297 114.871 91.1953 115.461 91.1953 116.148C91.1953 116.844 90.9297 117.441 90.3984 117.941C89.875 118.434 89.2422 118.68 88.5 118.68ZM94.9834 145.75V121H99.9053V124.023H100.128C100.347 123.539 100.663 123.047 101.077 122.547C101.499 122.039 102.046 121.617 102.718 121.281C103.397 120.938 104.241 120.766 105.249 120.766C106.562 120.766 107.772 121.109 108.882 121.797C109.991 122.477 110.878 123.504 111.542 124.879C112.206 126.246 112.538 127.961 112.538 130.023C112.538 132.031 112.214 133.727 111.565 135.109C110.925 136.484 110.05 137.527 108.94 138.238C107.839 138.941 106.604 139.293 105.237 139.293C104.269 139.293 103.444 139.133 102.765 138.812C102.093 138.492 101.542 138.09 101.112 137.605C100.683 137.113 100.354 136.617 100.128 136.117H99.9756V145.75H94.9834ZM99.8701 130C99.8701 131.07 100.019 132.004 100.315 132.801C100.612 133.598 101.042 134.219 101.604 134.664C102.167 135.102 102.851 135.32 103.655 135.32C104.468 135.32 105.155 135.098 105.718 134.652C106.28 134.199 106.706 133.574 106.995 132.777C107.292 131.973 107.44 131.047 107.44 130C107.44 128.961 107.296 128.047 107.007 127.258C106.718 126.469 106.292 125.852 105.729 125.406C105.167 124.961 104.476 124.738 103.655 124.738C102.843 124.738 102.155 124.953 101.593 125.383C101.038 125.812 100.612 126.422 100.315 127.211C100.019 128 99.8701 128.93 99.8701 130ZM130.843 126.133L126.272 126.414C126.194 126.023 126.026 125.672 125.769 125.359C125.511 125.039 125.171 124.785 124.749 124.598C124.335 124.402 123.839 124.305 123.261 124.305C122.487 124.305 121.835 124.469 121.304 124.797C120.772 125.117 120.507 125.547 120.507 126.086C120.507 126.516 120.679 126.879 121.022 127.176C121.366 127.473 121.956 127.711 122.792 127.891L126.05 128.547C127.8 128.906 129.104 129.484 129.964 130.281C130.823 131.078 131.253 132.125 131.253 133.422C131.253 134.602 130.905 135.637 130.21 136.527C129.522 137.418 128.577 138.113 127.374 138.613C126.179 139.105 124.8 139.352 123.237 139.352C120.854 139.352 118.956 138.855 117.542 137.863C116.136 136.863 115.312 135.504 115.069 133.785L119.979 133.527C120.128 134.254 120.487 134.809 121.058 135.191C121.628 135.566 122.358 135.754 123.249 135.754C124.124 135.754 124.827 135.586 125.358 135.25C125.897 134.906 126.171 134.465 126.179 133.926C126.171 133.473 125.979 133.102 125.604 132.812C125.229 132.516 124.651 132.289 123.87 132.133L120.753 131.512C118.995 131.16 117.687 130.551 116.827 129.684C115.976 128.816 115.55 127.711 115.55 126.367C115.55 125.211 115.862 124.215 116.487 123.379C117.12 122.543 118.007 121.898 119.147 121.445C120.296 120.992 121.64 120.766 123.179 120.766C125.452 120.766 127.241 121.246 128.546 122.207C129.858 123.168 130.624 124.477 130.843 126.133ZM145.939 131.336V121H150.932V139H146.139V135.73H145.951C145.545 136.785 144.869 137.633 143.924 138.273C142.986 138.914 141.842 139.234 140.49 139.234C139.287 139.234 138.229 138.961 137.314 138.414C136.4 137.867 135.686 137.09 135.17 136.082C134.662 135.074 134.404 133.867 134.396 132.461V121H139.389V131.57C139.396 132.633 139.682 133.473 140.244 134.09C140.807 134.707 141.561 135.016 142.506 135.016C143.107 135.016 143.67 134.879 144.193 134.605C144.717 134.324 145.139 133.91 145.459 133.363C145.787 132.816 145.947 132.141 145.939 131.336ZM154.925 139V121H159.683V124.176H159.894C160.269 123.121 160.894 122.289 161.769 121.68C162.644 121.07 163.69 120.766 164.909 120.766C166.144 120.766 167.194 121.074 168.062 121.691C168.929 122.301 169.507 123.129 169.796 124.176H169.983C170.351 123.145 171.015 122.32 171.976 121.703C172.944 121.078 174.089 120.766 175.409 120.766C177.089 120.766 178.452 121.301 179.499 122.371C180.554 123.434 181.081 124.941 181.081 126.895V139H176.101V127.879C176.101 126.879 175.835 126.129 175.304 125.629C174.772 125.129 174.108 124.879 173.312 124.879C172.405 124.879 171.698 125.168 171.19 125.746C170.683 126.316 170.429 127.07 170.429 128.008V139H165.589V127.773C165.589 126.891 165.335 126.187 164.827 125.664C164.327 125.141 163.667 124.879 162.847 124.879C162.292 124.879 161.792 125.02 161.347 125.301C160.909 125.574 160.562 125.961 160.304 126.461C160.046 126.953 159.917 127.531 159.917 128.195V139H154.925ZM92.625 179.293C91.2578 179.293 90.0195 178.941 88.9102 178.238C87.8086 177.527 86.9336 176.484 86.2852 175.109C85.6445 173.727 85.3242 172.031 85.3242 170.023C85.3242 167.961 85.6563 166.246 86.3203 164.879C86.9844 163.504 87.8672 162.477 88.9688 161.797C90.0781 161.109 91.293 160.766 92.6133 160.766C93.6211 160.766 94.4609 160.938 95.1328 161.281C95.8125 161.617 96.3594 162.039 96.7734 162.547C97.1953 163.047 97.5156 163.539 97.7344 164.023H97.8867V155H102.867V179H97.9453V176.117H97.7344C97.5 176.617 97.168 177.113 96.7383 177.605C96.3164 178.09 95.7656 178.492 95.0859 178.812C94.4141 179.133 93.5938 179.293 92.625 179.293ZM94.207 175.32C95.0117 175.32 95.6914 175.102 96.2461 174.664C96.8086 174.219 97.2383 173.598 97.5352 172.801C97.8398 172.004 97.9922 171.07 97.9922 170C97.9922 168.93 97.8438 168 97.5469 167.211C97.25 166.422 96.8203 165.812 96.2578 165.383C95.6953 164.953 95.0117 164.738 94.207 164.738C93.3867 164.738 92.6953 164.961 92.1328 165.406C91.5703 165.852 91.1445 166.469 90.8555 167.258C90.5664 168.047 90.4219 168.961 90.4219 170C90.4219 171.047 90.5664 171.973 90.8555 172.777C91.1523 173.574 91.5781 174.199 92.1328 174.652C92.6953 175.098 93.3867 175.32 94.207 175.32ZM115.104 179.352C113.284 179.352 111.71 178.965 110.382 178.191C109.062 177.41 108.042 176.324 107.323 174.934C106.604 173.535 106.245 171.914 106.245 170.07C106.245 168.211 106.604 166.586 107.323 165.195C108.042 163.797 109.062 162.711 110.382 161.937C111.71 161.156 113.284 160.766 115.104 160.766C116.925 160.766 118.495 161.156 119.815 161.937C121.144 162.711 122.167 163.797 122.886 165.195C123.604 166.586 123.964 168.211 123.964 170.07C123.964 171.914 123.604 173.535 122.886 174.934C122.167 176.324 121.144 177.41 119.815 178.191C118.495 178.965 116.925 179.352 115.104 179.352ZM115.128 175.484C115.956 175.484 116.647 175.25 117.202 174.781C117.757 174.305 118.175 173.656 118.456 172.836C118.745 172.016 118.89 171.082 118.89 170.035C118.89 168.988 118.745 168.055 118.456 167.234C118.175 166.414 117.757 165.766 117.202 165.289C116.647 164.812 115.956 164.574 115.128 164.574C114.292 164.574 113.589 164.812 113.019 165.289C112.456 165.766 112.03 166.414 111.741 167.234C111.46 168.055 111.319 168.988 111.319 170.035C111.319 171.082 111.46 172.016 111.741 172.836C112.03 173.656 112.456 174.305 113.019 174.781C113.589 175.25 114.292 175.484 115.128 175.484ZM132.202 155V179H127.21V155H132.202ZM144.334 179.352C142.514 179.352 140.939 178.965 139.611 178.191C138.291 177.41 137.271 176.324 136.553 174.934C135.834 173.535 135.475 171.914 135.475 170.07C135.475 168.211 135.834 166.586 136.553 165.195C137.271 163.797 138.291 162.711 139.611 161.937C140.939 161.156 142.514 160.766 144.334 160.766C146.154 160.766 147.725 161.156 149.045 161.937C150.373 162.711 151.396 163.797 152.115 165.195C152.834 166.586 153.193 168.211 153.193 170.07C153.193 171.914 152.834 173.535 152.115 174.934C151.396 176.324 150.373 177.41 149.045 178.191C147.725 178.965 146.154 179.352 144.334 179.352ZM144.357 175.484C145.186 175.484 145.877 175.25 146.432 174.781C146.986 174.305 147.404 173.656 147.686 172.836C147.975 172.016 148.119 171.082 148.119 170.035C148.119 168.988 147.975 168.055 147.686 167.234C147.404 166.414 146.986 165.766 146.432 165.289C145.877 164.812 145.186 164.574 144.357 164.574C143.521 164.574 142.818 164.812 142.248 165.289C141.686 165.766 141.26 166.414 140.971 167.234C140.689 168.055 140.549 168.988 140.549 170.035C140.549 171.082 140.689 172.016 140.971 172.836C141.26 173.656 141.686 174.305 142.248 174.781C142.818 175.25 143.521 175.484 144.357 175.484ZM156.439 179V161H161.279V164.141H161.467C161.795 163.023 162.346 162.18 163.119 161.609C163.893 161.031 164.783 160.742 165.791 160.742C166.041 160.742 166.311 160.758 166.6 160.789C166.889 160.82 167.143 160.863 167.361 160.918V165.348C167.127 165.277 166.803 165.215 166.389 165.16C165.975 165.105 165.596 165.078 165.252 165.078C164.518 165.078 163.861 165.238 163.283 165.559C162.713 165.871 162.26 166.309 161.924 166.871C161.596 167.434 161.432 168.082 161.432 168.816V179H156.439ZM192.557 166.133L187.986 166.414C187.908 166.023 187.74 165.672 187.482 165.359C187.225 165.039 186.885 164.785 186.463 164.598C186.049 164.402 185.553 164.305 184.975 164.305C184.201 164.305 183.549 164.469 183.018 164.797C182.486 165.117 182.221 165.547 182.221 166.086C182.221 166.516 182.393 166.879 182.736 167.176C183.08 167.473 183.67 167.711 184.506 167.891L187.764 168.547C189.514 168.906 190.818 169.484 191.678 170.281C192.537 171.078 192.967 172.125 192.967 173.422C192.967 174.602 192.619 175.637 191.924 176.527C191.236 177.418 190.291 178.113 189.088 178.613C187.893 179.105 186.514 179.352 184.951 179.352C182.568 179.352 180.67 178.855 179.256 177.863C177.85 176.863 177.025 175.504 176.783 173.785L181.693 173.527C181.842 174.254 182.201 174.809 182.771 175.191C183.342 175.566 184.072 175.754 184.963 175.754C185.838 175.754 186.541 175.586 187.072 175.25C187.611 174.906 187.885 174.465 187.893 173.926C187.885 173.473 187.693 173.102 187.318 172.812C186.943 172.516 186.365 172.289 185.584 172.133L182.467 171.512C180.709 171.16 179.4 170.551 178.541 169.684C177.689 168.816 177.264 167.711 177.264 166.367C177.264 165.211 177.576 164.215 178.201 163.379C178.834 162.543 179.721 161.898 180.861 161.445C182.01 160.992 183.354 160.766 184.893 160.766C187.166 160.766 188.955 161.246 190.26 162.207C191.572 163.168 192.338 164.477 192.557 166.133ZM196.11 179V161H201.103V179H196.11ZM198.618 158.68C197.876 158.68 197.239 158.434 196.708 157.941C196.185 157.441 195.923 156.844 195.923 156.148C195.923 155.461 196.185 154.871 196.708 154.379C197.239 153.879 197.876 153.629 198.618 153.629C199.36 153.629 199.993 153.879 200.517 154.379C201.048 154.871 201.313 155.461 201.313 156.148C201.313 156.844 201.048 157.441 200.517 157.941C199.993 158.434 199.36 158.68 198.618 158.68ZM214.676 161V164.75H203.836V161H214.676ZM206.297 156.687H211.289V173.469C211.289 173.93 211.359 174.289 211.5 174.547C211.641 174.797 211.836 174.973 212.086 175.074C212.344 175.176 212.641 175.227 212.977 175.227C213.211 175.227 213.445 175.207 213.68 175.168C213.914 175.121 214.094 175.086 214.219 175.062L215.004 178.777C214.754 178.855 214.402 178.945 213.949 179.047C213.496 179.156 212.945 179.223 212.297 179.246C211.094 179.293 210.039 179.133 209.133 178.766C208.234 178.398 207.535 177.828 207.035 177.055C206.535 176.281 206.289 175.305 206.297 174.125V156.687ZM91.125 219.34C89.9766 219.34 88.9531 219.141 88.0547 218.742C87.1563 218.336 86.4453 217.738 85.9219 216.949C85.4063 216.152 85.1484 215.16 85.1484 213.973C85.1484 212.973 85.332 212.133 85.6992 211.453C86.0664 210.773 86.5664 210.227 87.1992 209.812C87.832 209.398 88.5508 209.086 89.3555 208.875C90.168 208.664 91.0195 208.516 91.9102 208.43C92.957 208.32 93.8008 208.219 94.4414 208.125C95.082 208.023 95.5469 207.875 95.8359 207.68C96.125 207.484 96.2695 207.195 96.2695 206.812V206.742C96.2695 206 96.0352 205.426 95.5664 205.02C95.1055 204.613 94.4492 204.41 93.5977 204.41C92.6992 204.41 91.9844 204.609 91.4531 205.008C90.9219 205.398 90.5703 205.891 90.3984 206.484L85.7813 206.109C86.0156 205.016 86.4766 204.07 87.1641 203.273C87.8516 202.469 88.7383 201.852 89.8242 201.422C90.918 200.984 92.1836 200.766 93.6211 200.766C94.6211 200.766 95.5781 200.883 96.4922 201.117C97.4141 201.352 98.2305 201.715 98.9414 202.207C99.6602 202.699 100.227 203.332 100.641 204.105C101.055 204.871 101.262 205.789 101.262 206.859V219H96.5273V216.504H96.3867C96.0977 217.066 95.7109 217.562 95.2266 217.992C94.7422 218.414 94.1602 218.746 93.4805 218.988C92.8008 219.223 92.0156 219.34 91.125 219.34ZM92.5547 215.895C93.2891 215.895 93.9375 215.75 94.5 215.461C95.0625 215.164 95.5039 214.766 95.8242 214.266C96.1445 213.766 96.3047 213.199 96.3047 212.566V210.656C96.1484 210.758 95.9336 210.852 95.6602 210.937C95.3945 211.016 95.0938 211.09 94.7578 211.16C94.4219 211.223 94.0859 211.281 93.75 211.336C93.4141 211.383 93.1094 211.426 92.8359 211.465C92.25 211.551 91.7383 211.687 91.3008 211.875C90.8633 212.062 90.5234 212.316 90.2813 212.637C90.0391 212.949 89.918 213.34 89.918 213.809C89.918 214.488 90.1641 215.008 90.6563 215.367C91.1563 215.719 91.7891 215.895 92.5547 215.895ZM105.135 219V201H109.893V204.176H110.104C110.479 203.121 111.104 202.289 111.979 201.68C112.854 201.07 113.9 200.766 115.119 200.766C116.354 200.766 117.404 201.074 118.271 201.691C119.139 202.301 119.717 203.129 120.006 204.176H120.193C120.561 203.145 121.225 202.32 122.186 201.703C123.154 201.078 124.299 200.766 125.619 200.766C127.299 200.766 128.662 201.301 129.709 202.371C130.764 203.434 131.291 204.941 131.291 206.895V219H126.311V207.879C126.311 206.879 126.045 206.129 125.514 205.629C124.982 205.129 124.318 204.879 123.521 204.879C122.615 204.879 121.908 205.168 121.4 205.746C120.893 206.316 120.639 207.07 120.639 208.008V219H115.799V207.773C115.799 206.891 115.545 206.187 115.037 205.664C114.537 205.141 113.877 204.879 113.057 204.879C112.502 204.879 112.002 205.02 111.557 205.301C111.119 205.574 110.771 205.961 110.514 206.461C110.256 206.953 110.127 207.531 110.127 208.195V219H105.135ZM143.438 219.352C141.586 219.352 139.992 218.977 138.656 218.227C137.328 217.469 136.305 216.398 135.586 215.016C134.867 213.625 134.508 211.98 134.508 210.082C134.508 208.23 134.867 206.605 135.586 205.207C136.305 203.809 137.316 202.719 138.621 201.937C139.934 201.156 141.473 200.766 143.238 200.766C144.426 200.766 145.531 200.957 146.555 201.34C147.586 201.715 148.484 202.281 149.25 203.039C150.023 203.797 150.625 204.75 151.055 205.898C151.484 207.039 151.699 208.375 151.699 209.906V211.277H136.5V208.184H147C147 207.465 146.844 206.828 146.531 206.273C146.219 205.719 145.785 205.285 145.23 204.973C144.684 204.652 144.047 204.492 143.32 204.492C142.563 204.492 141.891 204.668 141.305 205.02C140.727 205.363 140.273 205.828 139.945 206.414C139.617 206.992 139.449 207.637 139.441 208.348V211.289C139.441 212.18 139.605 212.949 139.934 213.598C140.27 214.246 140.742 214.746 141.352 215.098C141.961 215.449 142.684 215.625 143.52 215.625C144.074 215.625 144.582 215.547 145.043 215.391C145.504 215.234 145.898 215 146.227 214.687C146.555 214.375 146.805 213.992 146.977 213.539L151.594 213.844C151.359 214.953 150.879 215.922 150.152 216.75C149.434 217.57 148.504 218.211 147.363 218.672C146.23 219.125 144.922 219.352 143.438 219.352ZM164.531 201V204.75H153.691V201H164.531ZM156.152 196.687H161.145V213.469C161.145 213.93 161.215 214.289 161.355 214.547C161.496 214.797 161.691 214.973 161.941 215.074C162.199 215.176 162.496 215.227 162.832 215.227C163.066 215.227 163.301 215.207 163.535 215.168C163.77 215.121 163.949 215.086 164.074 215.062L164.859 218.777C164.609 218.855 164.258 218.945 163.805 219.047C163.352 219.156 162.801 219.223 162.152 219.246C160.949 219.293 159.895 219.133 158.988 218.766C158.09 218.398 157.391 217.828 156.891 217.055C156.391 216.281 156.145 215.305 156.152 214.125V196.687ZM170.701 219.305C169.928 219.305 169.264 219.031 168.709 218.484C168.162 217.93 167.889 217.266 167.889 216.492C167.889 215.727 168.162 215.07 168.709 214.523C169.264 213.977 169.928 213.703 170.701 213.703C171.451 213.703 172.107 213.977 172.67 214.523C173.232 215.07 173.514 215.727 173.514 216.492C173.514 217.008 173.381 217.48 173.115 217.91C172.857 218.332 172.518 218.672 172.096 218.93C171.674 219.18 171.209 219.305 170.701 219.305Z" fill="white"/>
<defs>
<filter id="filter0_dd_263_30" x="46" y="26" width="208" height="268" filterUnits="userSpaceOnUse" color-interpolation-filters="sRGB">
<feFlood flood-opacity="0" result="BackgroundImageFix"/>
<feColorMatrix in="SourceAlpha" type="matrix" values="0 0 0 0 0 0 0 0 0 0 0 0 0 0 0 0 0 0 127 0" result="hardAlpha"/>
<feOffset dy="10"/>
<feGaussianBlur stdDeviation="7"/>
<feComposite in2="hardAlpha" operator="out"/>
<feColorMatrix type="matrix" values="0 0 0 0 0.662745 0 0 0 0 0.396078 0 0 0 0 0.690196 0 0 0 0.2 0"/>
<feBlend mode="normal" in2="BackgroundImageFix" result="effect1_dropShadow_263_30"/>
<feColorMatrix in="SourceAlpha" type="matrix" values="0 0 0 0 0 0 0 0 0 0 0 0 0 0 0 0 0 0 127 0" result="hardAlpha"/>
<feOffset dy="4"/>
<feGaussianBlur stdDeviation="2"/>
<feComposite in2="hardAlpha" operator="out"/>
<feColorMatrix type="matrix" values="0 0 0 0 0.421421 0 0 0 0 0.321835 0 0 0 0 0.428434 0 0 0 0.1 0"/>
<feBlend mode="normal" in2="effect1_dropShadow_263_30" result="effect2_dropShadow_263_30"/>
<feBlend mode="normal" in="SourceGraphic" in2="effect2_dropShadow_263_30" result="shape"/>
</filter>
<linearGradient id="paint0_linear_263_30" x1="138" y1="216" x2="222.5" y2="33" gradientUnits="userSpaceOnUse">
<stop stop-color="#F737B6"/>
<stop offset="0.73" stop-color="#C256B2"/>
<stop offset="1" stop-color="#843D85"/>
</linearGradient>
</defs>
</svg>
