<svg width="300" height="300" viewBox="0 0 300 300" fill="none" xmlns="http://www.w3.org/2000/svg">
<g filter="url(#filter0_dd_261_17)">
<path d="M60 40C60 34.4772 64.4772 30 70 30H209L240 61V260C240 265.523 235.523 270 230 270H70C64.4772 270 60 265.523 60 260V40Z" fill="url(#paint0_linear_261_17)"/>
</g>
<rect x="25" y="160" width="250" height="80" rx="10" fill="url(#paint1_linear_261_17)"/>
<path d="M100 73H200" stroke="#FF9F68" stroke-width="3" stroke-linecap="round"/>
<path d="M100 93H185" stroke="#FF9F68" stroke-width="3" stroke-linecap="round"/>
<path d="M100 113H150" stroke="#FF9F68" stroke-width="3" stroke-linecap="round"/>
<path d="M142 198.5C141.172 198.5 140.5 199.172 140.5 200C140.5 200.828 141.172 201.5 142 201.5V198.5ZM162.061 201.061C162.646 200.475 162.646 199.525 162.061 198.939L152.515 189.393C151.929 188.808 150.979 188.808 150.393 189.393C149.808 189.979 149.808 190.929 150.393 191.515L158.879 200L150.393 208.485C149.808 209.071 149.808 210.021 150.393 210.607C150.979 211.192 151.929 211.192 152.515 210.607L162.061 201.061ZM142 201.5H161V198.5H142V201.5Z" fill="white"/>
<path d="M100 133H185" stroke="#FF9F68" stroke-width="3" stroke-linecap="round"/>
<path d="M44.6591 188.727H50.1705L55.4773 198.75H55.7045L61.0114 188.727H66.5227L58.0341 203.773V212H53.1477V203.773L44.6591 188.727ZM70.8466 212H65.5739L73.608 188.727H79.9489L87.9716 212H82.6989L76.8693 194.045H76.6875L70.8466 212ZM70.517 202.852H82.9716V206.693H70.517V202.852ZM90.7727 188.727H96.8409L103.25 204.364H103.523L109.932 188.727H116V212H111.227V196.852H111.034L105.011 211.886H101.761L95.7386 196.795H95.5455V212H90.7727V188.727ZM120.054 212V188.727H124.974V207.943H134.952V212H120.054Z" fill="white"/>
<path d="M177.341 188.727H182.205V204.955C182.205 206.455 181.867 207.758 181.193 208.864C180.527 209.97 179.598 210.822 178.409 211.42C177.22 212.019 175.837 212.318 174.261 212.318C172.86 212.318 171.587 212.072 170.443 211.58C169.307 211.08 168.405 210.322 167.739 209.307C167.072 208.284 166.742 207 166.75 205.455H171.648C171.663 206.068 171.788 206.595 172.023 207.034C172.265 207.466 172.595 207.799 173.011 208.034C173.436 208.261 173.936 208.375 174.511 208.375C175.117 208.375 175.629 208.246 176.045 207.989C176.47 207.723 176.792 207.337 177.011 206.83C177.231 206.322 177.341 205.697 177.341 204.955V188.727ZM198.898 195.42C198.807 194.504 198.417 193.792 197.727 193.284C197.038 192.777 196.102 192.523 194.92 192.523C194.117 192.523 193.439 192.636 192.886 192.864C192.333 193.083 191.909 193.39 191.614 193.784C191.326 194.178 191.182 194.625 191.182 195.125C191.167 195.542 191.254 195.905 191.443 196.216C191.64 196.527 191.909 196.795 192.25 197.023C192.591 197.242 192.985 197.436 193.432 197.602C193.879 197.761 194.356 197.898 194.864 198.011L196.955 198.511C197.97 198.739 198.902 199.042 199.75 199.42C200.598 199.799 201.333 200.265 201.955 200.818C202.576 201.371 203.057 202.023 203.398 202.773C203.746 203.523 203.924 204.383 203.932 205.352C203.924 206.777 203.561 208.011 202.841 209.057C202.129 210.095 201.098 210.902 199.75 211.477C198.409 212.045 196.792 212.33 194.898 212.33C193.019 212.33 191.383 212.042 189.989 211.466C188.602 210.89 187.519 210.038 186.739 208.909C185.966 207.773 185.561 206.367 185.523 204.693H190.284C190.337 205.473 190.561 206.125 190.955 206.648C191.356 207.163 191.89 207.553 192.557 207.818C193.231 208.076 193.992 208.205 194.841 208.205C195.674 208.205 196.398 208.083 197.011 207.841C197.633 207.598 198.114 207.261 198.455 206.83C198.795 206.398 198.966 205.902 198.966 205.341C198.966 204.818 198.811 204.379 198.5 204.023C198.197 203.667 197.75 203.364 197.159 203.114C196.576 202.864 195.86 202.636 195.011 202.432L192.477 201.795C190.515 201.318 188.966 200.572 187.83 199.557C186.693 198.542 186.129 197.174 186.136 195.455C186.129 194.045 186.504 192.814 187.261 191.761C188.027 190.708 189.076 189.886 190.409 189.295C191.742 188.705 193.258 188.409 194.955 188.409C196.682 188.409 198.189 188.705 199.477 189.295C200.773 189.886 201.78 190.708 202.5 191.761C203.22 192.814 203.591 194.034 203.614 195.42H198.898ZM228.628 200.364C228.628 202.902 228.147 205.061 227.185 206.841C226.23 208.621 224.927 209.981 223.276 210.92C221.632 211.852 219.783 212.318 217.73 212.318C215.662 212.318 213.806 211.848 212.162 210.909C210.518 209.97 209.219 208.61 208.264 206.83C207.31 205.049 206.832 202.894 206.832 200.364C206.832 197.826 207.31 195.667 208.264 193.886C209.219 192.106 210.518 190.75 212.162 189.818C213.806 188.879 215.662 188.409 217.73 188.409C219.783 188.409 221.632 188.879 223.276 189.818C224.927 190.75 226.23 192.106 227.185 193.886C228.147 195.667 228.628 197.826 228.628 200.364ZM223.639 200.364C223.639 198.72 223.393 197.333 222.901 196.205C222.416 195.076 221.73 194.22 220.844 193.636C219.957 193.053 218.92 192.761 217.73 192.761C216.541 192.761 215.503 193.053 214.616 193.636C213.73 194.22 213.041 195.076 212.548 196.205C212.063 197.333 211.821 198.72 211.821 200.364C211.821 202.008 212.063 203.394 212.548 204.523C213.041 205.652 213.73 206.508 214.616 207.091C215.503 207.674 216.541 207.966 217.73 207.966C218.92 207.966 219.957 207.674 220.844 207.091C221.73 206.508 222.416 205.652 222.901 204.523C223.393 203.394 223.639 202.008 223.639 200.364ZM251.739 188.727V212H247.489L237.364 197.352H237.193V212H232.273V188.727H236.591L246.636 203.364H246.841V188.727H251.739Z" fill="white"/>
<path d="M209.5 30L240 60.5H219.5C213.977 60.5 209.5 56.0228 209.5 50.5V30Z" fill="white"/>
<defs>
<filter id="filter0_dd_261_17" x="46" y="26" width="208" height="268" filterUnits="userSpaceOnUse" color-interpolation-filters="sRGB">
<feFlood flood-opacity="0" result="BackgroundImageFix"/>
<feColorMatrix in="SourceAlpha" type="matrix" values="0 0 0 0 0 0 0 0 0 0 0 0 0 0 0 0 0 0 127 0" result="hardAlpha"/>
<feOffset dy="10"/>
<feGaussianBlur stdDeviation="7"/>
<feComposite in2="hardAlpha" operator="out"/>
<feColorMatrix type="matrix" values="0 0 0 0 0.662745 0 0 0 0 0.396078 0 0 0 0 0.690196 0 0 0 0.2 0"/>
<feBlend mode="normal" in2="BackgroundImageFix" result="effect1_dropShadow_261_17"/>
<feColorMatrix in="SourceAlpha" type="matrix" values="0 0 0 0 0 0 0 0 0 0 0 0 0 0 0 0 0 0 127 0" result="hardAlpha"/>
<feOffset dy="4"/>
<feGaussianBlur stdDeviation="2"/>
<feComposite in2="hardAlpha" operator="out"/>
<feColorMatrix type="matrix" values="0 0 0 0 0.421421 0 0 0 0 0.321835 0 0 0 0 0.428434 0 0 0 0.1 0"/>
<feBlend mode="normal" in2="effect1_dropShadow_261_17" result="effect2_dropShadow_261_17"/>
<feBlend mode="normal" in="SourceGraphic" in2="effect2_dropShadow_261_17" result="shape"/>
</filter>
<linearGradient id="paint0_linear_261_17" x1="159" y1="110.5" x2="222.5" y2="33" gradientUnits="userSpaceOnUse">
<stop stop-color="white"/>
<stop offset="0.76" stop-color="#FDDCF2"/>
</linearGradient>
<linearGradient id="paint1_linear_261_17" x1="85.1847" y1="169.487" x2="142.71" y2="259.238" gradientUnits="userSpaceOnUse">
<stop stop-color="#FF9E67"/>
<stop offset="0.525" stop-color="#A566AF"/>
<stop offset="1" stop-color="#F636B5"/>
</linearGradient>
</defs>
</svg>
