<svg width="300" height="300" viewBox="0 0 300 300" fill="none" xmlns="http://www.w3.org/2000/svg">
<mask id="mask0_297_229" style="mask-type:alpha" maskUnits="userSpaceOnUse" x="30" y="30" width="240" height="240">
<path d="M30 83.6842C30 54.0352 54.0352 30 83.6842 30H216.316C245.965 30 270 54.0352 270 83.6842V216.316C270 245.965 245.965 270 216.316 270H83.6842C54.0352 270 30 245.965 30 216.316V83.6842Z" fill="#744FDE"/>
</mask>
<g mask="url(#mask0_297_229)">
<rect x="30" y="30" width="240" height="240" fill="#303030"/>
<rect x="30" y="30" width="240" height="240" fill="url(#paint0_linear_297_229)" fill-opacity="0.4"/>
<path d="M69 74C69 71.2386 71.2386 69 74 69H141.467L156.544 84.077V180.725C156.544 183.486 154.305 185.725 151.544 185.725H74C71.2386 185.725 69 183.486 69 180.725V74Z" fill="#36B1F6"/>
<path opacity="0.4" d="M142.102 69L156.935 83.8338H147.102C144.34 83.8338 142.102 81.5952 142.102 78.8338V69Z" fill="white"/>
<g filter="url(#filter0_b_297_229)">
<path d="M144 118.275C144 115.514 146.239 113.275 149 113.275H216.467L231.544 128.352V225C231.544 227.761 229.305 230 226.544 230H149C146.239 230 144 227.761 144 225V118.275Z" fill="#F6B536"/>
</g>
<path opacity="0.4" d="M216.229 113.275L231.062 128.109H221.229C218.467 128.109 216.229 125.87 216.229 123.109V113.275Z" fill="white"/>
<path fill-rule="evenodd" clip-rule="evenodd" d="M169.681 72.0124C169.681 71.0897 170.446 70.3417 171.39 70.3417H202.723C209.959 70.3417 215.826 76.0765 215.826 83.1508V94.154L223.785 86.3736C224.452 85.7211 225.534 85.7211 226.202 86.3736C226.869 87.026 226.869 88.0839 226.202 88.7364L215.325 99.369C214.658 100.021 213.576 100.021 212.908 99.369L202.032 88.7364C201.364 88.0839 201.364 87.026 202.032 86.3736C202.699 85.7211 203.781 85.7211 204.449 86.3736L212.408 94.154V83.1508C212.408 77.922 208.072 73.6832 202.723 73.6832H171.39C170.446 73.6832 169.681 72.9352 169.681 72.0124Z" fill="url(#paint1_linear_297_229)"/>
<path fill-rule="evenodd" clip-rule="evenodd" d="M130.102 226.988C130.102 227.91 129.355 228.658 128.433 228.658L97.8378 228.658C90.7716 228.658 85.0434 222.923 85.0434 215.849L85.0434 204.846L77.2718 212.626C76.6201 213.279 75.5634 213.279 74.9117 212.626C74.26 211.974 74.26 210.916 74.9117 210.264L85.5322 199.631C86.1839 198.979 87.2405 198.979 87.8923 199.631L98.5127 210.264C99.1644 210.916 99.1644 211.974 98.5127 212.626C97.861 213.279 96.8043 213.279 96.1526 212.626L88.381 204.846L88.381 215.849C88.381 221.078 92.615 225.317 97.8378 225.317L128.433 225.317C129.355 225.317 130.102 226.065 130.102 226.988Z" fill="url(#paint2_linear_297_229)"/>
<path d="M87.3707 93.5383H90.4709L93.456 99.176H93.5838L96.5689 93.5383H99.669L94.8942 102.001V106.629H92.1456V102.001L87.3707 93.5383ZM102.101 106.629H99.1353L103.654 93.5383H107.221L111.734 106.629H108.768L105.489 96.5297H105.387L102.101 106.629ZM101.916 101.484H108.922V103.644H101.916V101.484ZM113.31 93.5383H116.723L120.328 102.334H120.482L124.087 93.5383H127.5V106.629H124.815V98.1086H124.707L121.319 106.565H119.491L116.103 98.0766H115.994V106.629H113.31V93.5383ZM129.78 106.629V93.5383H132.548V104.347H138.16V106.629H129.78Z" fill="white"/>
<path d="M168.379 137.813H171.115V146.941C171.115 147.785 170.925 148.518 170.546 149.14C170.171 149.762 169.649 150.242 168.98 150.578C168.311 150.915 167.533 151.083 166.647 151.083C165.859 151.083 165.143 150.945 164.499 150.668C163.86 150.386 163.353 149.96 162.978 149.389C162.603 148.814 162.418 148.092 162.422 147.222H165.177C165.185 147.568 165.256 147.864 165.388 148.111C165.524 148.354 165.71 148.541 165.944 148.673C166.183 148.801 166.464 148.865 166.788 148.865C167.129 148.865 167.416 148.793 167.651 148.648C167.889 148.499 168.07 148.281 168.194 147.996C168.317 147.71 168.379 147.359 168.379 146.941V137.813ZM180.505 141.578C180.454 141.063 180.234 140.662 179.847 140.376C179.459 140.091 178.933 139.948 178.268 139.948C177.816 139.948 177.435 140.012 177.124 140.14C176.813 140.264 176.574 140.436 176.408 140.658C176.246 140.879 176.165 141.131 176.165 141.412C176.156 141.646 176.205 141.851 176.312 142.026C176.423 142.2 176.574 142.352 176.766 142.479C176.957 142.603 177.179 142.712 177.43 142.805C177.682 142.895 177.95 142.972 178.236 143.036L179.412 143.317C179.983 143.445 180.507 143.615 180.984 143.828C181.462 144.041 181.875 144.303 182.224 144.614C182.574 144.925 182.844 145.292 183.036 145.714C183.232 146.136 183.332 146.619 183.337 147.165C183.332 147.966 183.128 148.661 182.723 149.249C182.322 149.832 181.743 150.286 180.984 150.61C180.23 150.93 179.32 151.09 178.255 151.09C177.198 151.09 176.278 150.928 175.494 150.604C174.714 150.28 174.104 149.8 173.665 149.166C173.231 148.526 173.003 147.736 172.982 146.794H175.66C175.69 147.233 175.815 147.599 176.037 147.894C176.263 148.183 176.563 148.403 176.938 148.552C177.317 148.697 177.746 148.769 178.223 148.769C178.692 148.769 179.099 148.701 179.444 148.565C179.793 148.428 180.064 148.239 180.256 147.996C180.447 147.753 180.543 147.474 180.543 147.158C180.543 146.864 180.456 146.617 180.281 146.417C180.111 146.217 179.859 146.046 179.527 145.906C179.199 145.765 178.796 145.637 178.319 145.522L176.893 145.164C175.79 144.896 174.918 144.476 174.279 143.905C173.64 143.334 173.322 142.565 173.327 141.597C173.322 140.805 173.533 140.112 173.96 139.52C174.39 138.928 174.98 138.465 175.73 138.133C176.48 137.8 177.332 137.634 178.287 137.634C179.259 137.634 180.107 137.8 180.831 138.133C181.56 138.465 182.126 138.928 182.531 139.52C182.936 140.112 183.145 140.798 183.158 141.578H180.505ZM197.228 144.359C197.228 145.786 196.958 147.001 196.416 148.002C195.879 149.004 195.146 149.769 194.218 150.297C193.293 150.821 192.253 151.083 191.098 151.083C189.935 151.083 188.891 150.819 187.966 150.291C187.041 149.762 186.311 148.997 185.774 147.996C185.237 146.994 184.968 145.782 184.968 144.359C184.968 142.931 185.237 141.717 185.774 140.715C186.311 139.714 187.041 138.951 187.966 138.427C188.891 137.898 189.935 137.634 191.098 137.634C192.253 137.634 193.293 137.898 194.218 138.427C195.146 138.951 195.879 139.714 196.416 140.715C196.958 141.717 197.228 142.931 197.228 144.359ZM194.422 144.359C194.422 143.434 194.284 142.654 194.007 142.019C193.734 141.384 193.348 140.903 192.85 140.575C192.351 140.247 191.767 140.082 191.098 140.082C190.429 140.082 189.845 140.247 189.347 140.575C188.848 140.903 188.46 141.384 188.183 142.019C187.911 142.654 187.774 143.434 187.774 144.359C187.774 145.283 187.911 146.063 188.183 146.698C188.46 147.333 188.848 147.815 189.347 148.143C189.845 148.471 190.429 148.635 191.098 148.635C191.767 148.635 192.351 148.471 192.85 148.143C193.348 147.815 193.734 147.333 194.007 146.698C194.284 146.063 194.422 145.283 194.422 144.359ZM210.228 137.813V150.904H207.837L202.142 142.665H202.046V150.904H199.278V137.813H201.707L207.358 146.046H207.473V137.813H210.228Z" fill="white"/>
<g style="mix-blend-mode:overlay" filter="url(#filter1_f_297_229)">
<circle cx="50" cy="35" r="55" fill="white" fill-opacity="0.5"/>
</g>
<g style="mix-blend-mode:overlay" filter="url(#filter2_f_297_229)">
<circle cx="264" cy="270" r="55" fill="white" fill-opacity="0.5"/>
</g>
</g>
<defs>
<filter id="filter0_b_297_229" x="138" y="107.275" width="99.5438" height="128.725" filterUnits="userSpaceOnUse" color-interpolation-filters="sRGB">
<feFlood flood-opacity="0" result="BackgroundImageFix"/>
<feGaussianBlur in="BackgroundImageFix" stdDeviation="3"/>
<feComposite in2="SourceAlpha" operator="in" result="effect1_backgroundBlur_297_229"/>
<feBlend mode="normal" in="SourceGraphic" in2="effect1_backgroundBlur_297_229" result="shape"/>
</filter>
<filter id="filter1_f_297_229" x="-39" y="-54" width="178" height="178" filterUnits="userSpaceOnUse" color-interpolation-filters="sRGB">
<feFlood flood-opacity="0" result="BackgroundImageFix"/>
<feBlend mode="normal" in="SourceGraphic" in2="BackgroundImageFix" result="shape"/>
<feGaussianBlur stdDeviation="17" result="effect1_foregroundBlur_297_229"/>
</filter>
<filter id="filter2_f_297_229" x="175" y="181" width="178" height="178" filterUnits="userSpaceOnUse" color-interpolation-filters="sRGB">
<feFlood flood-opacity="0" result="BackgroundImageFix"/>
<feBlend mode="normal" in="SourceGraphic" in2="BackgroundImageFix" result="shape"/>
<feGaussianBlur stdDeviation="17" result="effect1_foregroundBlur_297_229"/>
</filter>
<linearGradient id="paint0_linear_297_229" x1="55.5" y1="37.5" x2="255.5" y2="258.5" gradientUnits="userSpaceOnUse">
<stop stop-color="#36B1F6"/>
<stop offset="0.2" stop-color="#2F2F2F"/>
<stop offset="0.8" stop-color="#2F2F2F"/>
<stop offset="1" stop-color="#F6B536"/>
</linearGradient>
<linearGradient id="paint1_linear_297_229" x1="198.192" y1="70.3417" x2="169.858" y2="70.3417" gradientUnits="userSpaceOnUse">
<stop offset="0.48" stop-color="white"/>
<stop offset="0.995" stop-color="white" stop-opacity="0"/>
</linearGradient>
<linearGradient id="paint2_linear_297_229" x1="102.263" y1="228.658" x2="129.93" y2="228.658" gradientUnits="userSpaceOnUse">
<stop offset="0.48" stop-color="white"/>
<stop offset="0.995" stop-color="white" stop-opacity="0"/>
</linearGradient>
</defs>
</svg>
