<svg width="300" height="300" viewBox="0 0 300 300" fill="none" xmlns="http://www.w3.org/2000/svg">
<mask id="mask0_297_253" style="mask-type:alpha" maskUnits="userSpaceOnUse" x="30" y="30" width="240" height="240">
<path d="M30 83.6842C30 54.0352 54.0352 30 83.6842 30H216.316C245.965 30 270 54.0352 270 83.6842V216.316C270 245.965 245.965 270 216.316 270H83.6842C54.0352 270 30 245.965 30 216.316V83.6842Z" fill="#744FDE"/>
</mask>
<g mask="url(#mask0_297_253)">
<rect x="30" y="30" width="240" height="240" fill="#303030"/>
<rect x="30" y="30" width="240" height="240" fill="url(#paint0_linear_297_253)" fill-opacity="0.4"/>
<path d="M69 74C69 71.2386 71.2386 69 74 69H141.467L156.544 84.077V180.725C156.544 183.486 154.305 185.725 151.544 185.725H74C71.2386 185.725 69 183.486 69 180.725V74Z" fill="#41D77D"/>
<path opacity="0.4" d="M142.102 69L156.935 83.8338H147.102C144.34 83.8338 142.102 81.5952 142.102 78.8338V69Z" fill="white"/>
<g filter="url(#filter0_b_297_253)">
<path d="M144 118.275C144 115.514 146.239 113.275 149 113.275H216.467L231.544 128.352V225C231.544 227.761 229.305 230 226.544 230H149C146.239 230 144 227.761 144 225V118.275Z" fill="#995EF8"/>
</g>
<path opacity="0.4" d="M216.229 113.275L231.062 128.109H221.229C218.467 128.109 216.229 125.87 216.229 123.109V113.275Z" fill="white"/>
<path fill-rule="evenodd" clip-rule="evenodd" d="M169.681 72.0124C169.681 71.0897 170.446 70.3417 171.39 70.3417H202.723C209.959 70.3417 215.826 76.0765 215.826 83.1508V94.154L223.785 86.3736C224.452 85.7211 225.534 85.7211 226.202 86.3736C226.869 87.026 226.869 88.0839 226.202 88.7364L215.325 99.369C214.658 100.021 213.576 100.021 212.908 99.369L202.032 88.7364C201.364 88.0839 201.364 87.026 202.032 86.3736C202.699 85.7211 203.781 85.7211 204.449 86.3736L212.408 94.154V83.1508C212.408 77.922 208.072 73.6832 202.723 73.6832H171.39C170.446 73.6832 169.681 72.9352 169.681 72.0124Z" fill="url(#paint1_linear_297_253)"/>
<path fill-rule="evenodd" clip-rule="evenodd" d="M130.102 226.988C130.102 227.91 129.355 228.658 128.433 228.658L97.8378 228.658C90.7716 228.658 85.0434 222.923 85.0434 215.849L85.0434 204.846L77.2718 212.626C76.6201 213.279 75.5634 213.279 74.9117 212.626C74.26 211.974 74.26 210.916 74.9117 210.264L85.5322 199.631C86.1839 198.979 87.2405 198.979 87.8923 199.631L98.5127 210.264C99.1644 210.916 99.1644 211.974 98.5127 212.626C97.861 213.279 96.8043 213.279 96.1526 212.626L88.381 204.846L88.381 215.849C88.381 221.078 92.615 225.317 97.8378 225.317L128.433 225.317C129.355 225.317 130.102 226.065 130.102 226.988Z" fill="url(#paint2_linear_297_253)"/>
<path d="M99.3546 93.5383H102.768L106.373 102.334H106.526L110.132 93.5383H113.545V106.629H110.86V98.1086H110.752L107.364 106.565H105.536L102.148 98.0766H102.039V106.629H99.3546V93.5383ZM120.466 106.629H115.825V93.5383H120.504C121.821 93.5383 122.955 93.8003 123.905 94.3245C124.855 94.8444 125.586 95.5922 126.097 96.5681C126.613 97.5439 126.871 98.7116 126.871 100.071C126.871 101.435 126.613 102.606 126.097 103.587C125.586 104.567 124.851 105.319 123.892 105.843C122.938 106.367 121.795 106.629 120.466 106.629ZM118.593 104.258H120.351C121.169 104.258 121.857 104.113 122.415 103.823C122.978 103.529 123.4 103.075 123.681 102.462C123.967 101.844 124.109 101.047 124.109 100.071C124.109 99.1036 123.967 98.3131 123.681 97.6995C123.4 97.0858 122.98 96.6341 122.422 96.3444C121.864 96.0546 121.175 95.9097 120.357 95.9097H118.593V104.258Z" fill="white"/>
<path d="M162.569 150.904V137.813H165.337V143.215H170.956V137.813H173.717V150.904H170.956V145.497H165.337V150.904H162.569ZM175.501 140.095V137.813H186.252V140.095H182.244V150.904H179.508V140.095H175.501ZM188.023 137.813H191.436L195.041 146.609H195.194L198.8 137.813H202.213V150.904H199.528V142.384H199.42L196.032 150.84H194.204L190.816 142.352H190.707V150.904H188.023V137.813ZM204.493 150.904V137.813H207.261V148.622H212.873V150.904H204.493Z" fill="white"/>
<g style="mix-blend-mode:overlay" filter="url(#filter1_f_297_253)">
<circle cx="50" cy="35" r="55" fill="white" fill-opacity="0.5"/>
</g>
<g style="mix-blend-mode:overlay" filter="url(#filter2_f_297_253)">
<circle cx="264" cy="270" r="55" fill="white" fill-opacity="0.5"/>
</g>
</g>
<defs>
<filter id="filter0_b_297_253" x="138" y="107.275" width="99.5438" height="128.725" filterUnits="userSpaceOnUse" color-interpolation-filters="sRGB">
<feFlood flood-opacity="0" result="BackgroundImageFix"/>
<feGaussianBlur in="BackgroundImageFix" stdDeviation="3"/>
<feComposite in2="SourceAlpha" operator="in" result="effect1_backgroundBlur_297_253"/>
<feBlend mode="normal" in="SourceGraphic" in2="effect1_backgroundBlur_297_253" result="shape"/>
</filter>
<filter id="filter1_f_297_253" x="-39" y="-54" width="178" height="178" filterUnits="userSpaceOnUse" color-interpolation-filters="sRGB">
<feFlood flood-opacity="0" result="BackgroundImageFix"/>
<feBlend mode="normal" in="SourceGraphic" in2="BackgroundImageFix" result="shape"/>
<feGaussianBlur stdDeviation="17" result="effect1_foregroundBlur_297_253"/>
</filter>
<filter id="filter2_f_297_253" x="175" y="181" width="178" height="178" filterUnits="userSpaceOnUse" color-interpolation-filters="sRGB">
<feFlood flood-opacity="0" result="BackgroundImageFix"/>
<feBlend mode="normal" in="SourceGraphic" in2="BackgroundImageFix" result="shape"/>
<feGaussianBlur stdDeviation="17" result="effect1_foregroundBlur_297_253"/>
</filter>
<linearGradient id="paint0_linear_297_253" x1="55.5" y1="37.5" x2="255.5" y2="258.5" gradientUnits="userSpaceOnUse">
<stop stop-color="#41D77D"/>
<stop offset="0.2" stop-color="#2F2F2F"/>
<stop offset="0.8" stop-color="#2F2F2F"/>
<stop offset="1" stop-color="#995EF8"/>
</linearGradient>
<linearGradient id="paint1_linear_297_253" x1="198.192" y1="70.3417" x2="169.858" y2="70.3417" gradientUnits="userSpaceOnUse">
<stop offset="0.48" stop-color="white"/>
<stop offset="0.995" stop-color="white" stop-opacity="0"/>
</linearGradient>
<linearGradient id="paint2_linear_297_253" x1="102.263" y1="228.658" x2="129.93" y2="228.658" gradientUnits="userSpaceOnUse">
<stop offset="0.48" stop-color="white"/>
<stop offset="0.995" stop-color="white" stop-opacity="0"/>
</linearGradient>
</defs>
</svg>
