<svg width="488" height="120" viewBox="0 0 488 120" fill="none" xmlns="http://www.w3.org/2000/svg">
<circle cx="60" cy="60" r="55" fill="url(#paint0_linear_286_4)"/>
<path fill-rule="evenodd" clip-rule="evenodd" d="M31.2308 49.182C27.0286 53.6631 26.8393 61.1755 31.1681 67.36C33.9718 71.3657 36.3472 73.4867 38.4622 74.4519C40.4644 75.3656 42.4546 75.3426 44.8343 74.506C47.3093 73.6359 50.0696 71.9314 53.4586 69.5916C54.5457 68.841 55.6981 68.0247 56.9149 67.1628C59.4022 65.4009 62.1589 63.4482 65.1773 61.4769C65.7923 61.0754 66.4009 60.6986 67.0037 60.3459C67.0367 60.3252 67.0705 60.3055 67.105 60.2867C70.3324 58.41 73.3786 57.2246 76.203 56.6203C75.0202 56.0507 73.8355 55.4774 72.6638 54.9101C72.1127 54.6433 71.5638 54.3777 71.0197 54.1145C66.4329 51.8969 62.1659 49.8577 58.9527 48.5372C44.1838 42.4681 35.351 44.7885 31.2308 49.182ZM86.3394 57.0807C82.6258 55.4098 78.4992 53.4121 74.4575 51.4558C73.9064 51.1889 73.3564 50.9228 72.8097 50.6584C68.2496 48.4536 63.8668 46.357 60.5181 44.9809C45.063 38.6297 34.0629 40.4063 28.2666 46.5872C22.5524 52.6805 22.7417 62.2201 27.8546 69.525C30.8173 73.7579 33.6864 76.5465 36.7538 77.9464C39.9339 79.3976 43.0639 79.2409 46.2021 78.1378C49.2449 77.0677 52.4002 75.0723 55.7842 72.736C56.9455 71.9342 58.1352 71.0913 59.3716 70.2153C61.8226 68.4785 64.4573 66.6119 67.4171 64.6788C67.8614 64.3889 68.2993 64.1145 68.7313 63.8551C71.3444 63.6824 73.9903 64.4377 76.6175 65.726C79.3917 67.0865 81.9875 68.9609 84.3356 70.718C84.565 70.8898 84.7936 71.0614 85.02 71.2316C85.9285 71.9138 86.807 72.5738 87.6087 73.134C88.5922 73.8211 89.6083 74.4662 90.5662 74.8448C91.4629 75.1993 92.9025 75.5497 94.2052 74.6917C95.411 73.8973 95.7862 72.5079 95.9235 71.3436C96.5159 66.32 93.6429 60.6262 88.126 57.8443C87.5537 57.5558 86.9581 57.3004 86.3394 57.0807ZM75.0966 60.9124C76.2516 61.2897 77.365 61.7586 78.4279 62.2798C81.5751 63.8232 84.4355 65.9044 86.7847 67.6626C87.0315 67.8471 87.2713 68.0273 87.5047 68.2026C88.4062 68.8797 89.2131 69.4855 89.9527 70.0025C90.7952 70.591 91.4339 70.9794 91.9071 71.1941C91.922 71.1118 91.9361 71.0163 91.9491 70.9061C92.351 67.4995 90.3524 63.3262 86.2752 61.2704C83.6175 59.9302 79.8683 59.4096 75.0966 60.9124ZM92.3929 71.363C92.3929 71.363 92.3859 71.3633 92.3692 71.3602C92.3844 71.3609 92.3929 71.363 92.3929 71.363Z" fill="white"/>
<path d="M183.986 53.304H174.423C174.151 51.7358 173.648 50.3466 172.915 49.1364C172.182 47.9091 171.27 46.8693 170.179 46.017C169.088 45.1648 167.844 44.5256 166.446 44.0994C165.065 43.6562 163.574 43.4347 161.972 43.4347C159.125 43.4347 156.602 44.1506 154.403 45.5824C152.205 46.9972 150.483 49.0767 149.239 51.821C147.994 54.5483 147.372 57.8807 147.372 61.8182C147.372 65.8239 147.994 69.1989 149.239 71.9432C150.5 74.6705 152.222 76.733 154.403 78.1307C156.602 79.5114 159.116 80.2017 161.946 80.2017C163.514 80.2017 164.98 79.9972 166.344 79.5881C167.724 79.1619 168.96 78.5398 170.051 77.7216C171.159 76.9034 172.088 75.8977 172.838 74.7045C173.605 73.5114 174.134 72.1477 174.423 70.6136L183.986 70.6648C183.628 73.1534 182.852 75.4886 181.659 77.6705C180.483 79.8523 178.94 81.7784 177.031 83.4489C175.122 85.1023 172.889 86.3977 170.332 87.3352C167.776 88.2557 164.938 88.7159 161.818 88.7159C157.216 88.7159 153.108 87.6506 149.494 85.5199C145.881 83.3892 143.034 80.3125 140.955 76.2898C138.875 72.267 137.835 67.4432 137.835 61.8182C137.835 56.1761 138.884 51.3523 140.98 47.3466C143.077 43.3239 145.932 40.2472 149.545 38.1165C153.159 35.9858 157.25 34.9205 161.818 34.9205C164.733 34.9205 167.443 35.3295 169.949 36.1477C172.455 36.9659 174.688 38.1676 176.648 39.7528C178.608 41.321 180.219 43.2472 181.48 45.5312C182.759 47.7983 183.594 50.3892 183.986 53.304ZM190.103 88V48.7273H199.078V55.2727H199.487C200.203 53.0057 201.43 51.2585 203.169 50.0312C204.925 48.7869 206.927 48.1648 209.177 48.1648C209.689 48.1648 210.26 48.1903 210.89 48.2415C211.538 48.2756 212.075 48.3352 212.501 48.4205V56.9347C212.109 56.7983 211.487 56.679 210.635 56.5767C209.8 56.4574 208.99 56.3977 208.206 56.3977C206.518 56.3977 205.001 56.7642 203.655 57.4972C202.325 58.2131 201.277 59.2102 200.51 60.4886C199.743 61.767 199.359 63.2415 199.359 64.9119V88H190.103ZM216.49 88V48.7273H225.746V88H216.49ZM221.144 43.1534C219.678 43.1534 218.417 42.6676 217.36 41.696C216.303 40.7074 215.774 39.5227 215.774 38.142C215.774 36.7443 216.303 35.5597 217.36 34.5881C218.417 33.5994 219.678 33.1051 221.144 33.1051C222.627 33.1051 223.888 33.5994 224.928 34.5881C225.985 35.5597 226.513 36.7443 226.513 38.142C226.513 39.5227 225.985 40.7074 224.928 41.696C223.888 42.6676 222.627 43.1534 221.144 43.1534ZM264.144 59.108L255.706 60.0284C255.467 59.1761 255.05 58.375 254.453 57.625C253.874 56.875 253.09 56.2699 252.101 55.8097C251.112 55.3494 249.902 55.1193 248.47 55.1193C246.544 55.1193 244.925 55.5369 243.612 56.3722C242.317 57.2074 241.678 58.2898 241.695 59.6193C241.678 60.7614 242.095 61.6903 242.948 62.4062C243.817 63.1222 245.249 63.7102 247.243 64.1705L253.942 65.6023C257.658 66.4034 260.419 67.6733 262.226 69.4119C264.05 71.1506 264.97 73.4261 264.987 76.2386C264.97 78.7102 264.246 80.892 262.814 82.7841C261.399 84.6591 259.431 86.125 256.908 87.1818C254.385 88.2386 251.487 88.767 248.215 88.767C243.408 88.767 239.538 87.7614 236.607 85.75C233.675 83.7216 231.928 80.9006 231.365 77.2869L240.391 76.4176C240.8 78.1903 241.669 79.5284 242.999 80.4318C244.328 81.3352 246.058 81.7869 248.189 81.7869C250.388 81.7869 252.152 81.3352 253.482 80.4318C254.828 79.5284 255.502 78.4119 255.502 77.0824C255.502 75.9574 255.067 75.0284 254.198 74.2955C253.345 73.5625 252.016 73 250.209 72.608L243.51 71.2017C239.743 70.4176 236.956 69.0966 235.149 67.2386C233.342 65.3636 232.448 62.9943 232.465 60.1307C232.448 57.7102 233.104 55.6136 234.433 53.8409C235.78 52.0511 237.646 50.6705 240.033 49.6989C242.436 48.7102 245.206 48.2159 248.342 48.2159C252.945 48.2159 256.567 49.196 259.209 51.1562C261.868 53.1165 263.513 55.767 264.144 59.108ZM270.459 102.727V48.7273H279.562V55.2216H280.099C280.576 54.267 281.249 53.2528 282.119 52.179C282.988 51.0881 284.164 50.1591 285.647 49.392C287.13 48.608 289.022 48.2159 291.323 48.2159C294.357 48.2159 297.093 48.9915 299.53 50.5426C301.985 52.0767 303.928 54.3523 305.36 57.3693C306.809 60.3693 307.533 64.0511 307.533 68.4148C307.533 72.7273 306.826 76.392 305.411 79.4091C303.996 82.4261 302.07 84.7273 299.633 86.3125C297.195 87.8977 294.434 88.6903 291.349 88.6903C289.099 88.6903 287.232 88.3153 285.749 87.5653C284.266 86.8153 283.073 85.9119 282.17 84.8551C281.283 83.7812 280.593 82.767 280.099 81.8125H279.715V102.727H270.459ZM279.536 68.3636C279.536 70.9034 279.894 73.1278 280.61 75.0369C281.343 76.946 282.391 78.4375 283.755 79.5114C285.136 80.5682 286.806 81.0966 288.766 81.0966C290.812 81.0966 292.525 80.5511 293.905 79.4602C295.286 78.3523 296.326 76.8437 297.025 74.9347C297.741 73.0085 298.099 70.8182 298.099 68.3636C298.099 65.9261 297.749 63.7614 297.05 61.8693C296.351 59.9773 295.312 58.4943 293.931 57.4205C292.55 56.3466 290.829 55.8097 288.766 55.8097C286.789 55.8097 285.11 56.3295 283.729 57.3693C282.349 58.4091 281.3 59.8665 280.584 61.7415C279.886 63.6165 279.536 65.8239 279.536 68.3636ZM308.525 43.5881V35.6364H350.303V43.5881H334.118V88H324.709V43.5881H308.525ZM367.223 88.767C363.388 88.767 360.064 87.9233 357.252 86.2358C354.439 84.5483 352.257 82.1875 350.706 79.1534C349.172 76.1193 348.405 72.5739 348.405 68.517C348.405 64.4602 349.172 60.9062 350.706 57.8551C352.257 54.804 354.439 52.4347 357.252 50.7472C360.064 49.0597 363.388 48.2159 367.223 48.2159C371.058 48.2159 374.382 49.0597 377.195 50.7472C380.007 52.4347 382.181 54.804 383.715 57.8551C385.266 60.9062 386.041 64.4602 386.041 68.517C386.041 72.5739 385.266 76.1193 383.715 79.1534C382.181 82.1875 380.007 84.5483 377.195 86.2358C374.382 87.9233 371.058 88.767 367.223 88.767ZM367.274 81.3523C369.354 81.3523 371.093 80.7812 372.49 79.6392C373.888 78.4801 374.928 76.929 375.61 74.9858C376.308 73.0426 376.658 70.8778 376.658 68.4915C376.658 66.0881 376.308 63.9148 375.61 61.9716C374.928 60.0114 373.888 58.4517 372.49 57.2926C371.093 56.1335 369.354 55.554 367.274 55.554C365.144 55.554 363.371 56.1335 361.956 57.2926C360.558 58.4517 359.51 60.0114 358.811 61.9716C358.129 63.9148 357.789 66.0881 357.789 68.4915C357.789 70.8778 358.129 73.0426 358.811 74.9858C359.51 76.929 360.558 78.4801 361.956 79.6392C363.371 80.7812 365.144 81.3523 367.274 81.3523ZM408.868 88.767C405.033 88.767 401.709 87.9233 398.896 86.2358C396.084 84.5483 393.902 82.1875 392.351 79.1534C390.817 76.1193 390.05 72.5739 390.05 68.517C390.05 64.4602 390.817 60.9062 392.351 57.8551C393.902 54.804 396.084 52.4347 398.896 50.7472C401.709 49.0597 405.033 48.2159 408.868 48.2159C412.703 48.2159 416.027 49.0597 418.84 50.7472C421.652 52.4347 423.825 54.804 425.359 57.8551C426.911 60.9062 427.686 64.4602 427.686 68.517C427.686 72.5739 426.911 76.1193 425.359 79.1534C423.825 82.1875 421.652 84.5483 418.84 86.2358C416.027 87.9233 412.703 88.767 408.868 88.767ZM408.919 81.3523C410.999 81.3523 412.737 80.7812 414.135 79.6392C415.533 78.4801 416.572 76.929 417.254 74.9858C417.953 73.0426 418.303 70.8778 418.303 68.4915C418.303 66.0881 417.953 63.9148 417.254 61.9716C416.572 60.0114 415.533 58.4517 414.135 57.2926C412.737 56.1335 410.999 55.554 408.919 55.554C406.788 55.554 405.016 56.1335 403.601 57.2926C402.203 58.4517 401.155 60.0114 400.456 61.9716C399.774 63.9148 399.433 66.0881 399.433 68.4915C399.433 70.8778 399.774 73.0426 400.456 74.9858C401.155 76.929 402.203 78.4801 403.601 79.6392C405.016 80.7812 406.788 81.3523 408.919 81.3523ZM442.638 35.6364V88H433.382V35.6364H442.638ZM481.035 59.108L472.598 60.0284C472.359 59.1761 471.941 58.375 471.345 57.625C470.765 56.875 469.981 56.2699 468.993 55.8097C468.004 55.3494 466.794 55.1193 465.362 55.1193C463.436 55.1193 461.816 55.5369 460.504 56.3722C459.208 57.2074 458.569 58.2898 458.586 59.6193C458.569 60.7614 458.987 61.6903 459.839 62.4062C460.708 63.1222 462.14 63.7102 464.135 64.1705L470.833 65.6023C474.549 66.4034 477.311 67.6733 479.118 69.4119C480.941 71.1506 481.862 73.4261 481.879 76.2386C481.862 78.7102 481.137 80.892 479.706 82.7841C478.291 84.6591 476.322 86.125 473.799 87.1818C471.277 88.2386 468.379 88.767 465.106 88.767C460.299 88.767 456.43 87.7614 453.498 85.75C450.566 83.7216 448.819 80.9006 448.257 77.2869L457.282 76.4176C457.691 78.1903 458.561 79.5284 459.89 80.4318C461.22 81.3352 462.95 81.7869 465.081 81.7869C467.279 81.7869 469.044 81.3352 470.373 80.4318C471.72 79.5284 472.393 78.4119 472.393 77.0824C472.393 75.9574 471.958 75.0284 471.089 74.2955C470.237 73.5625 468.907 73 467.1 72.608L460.402 71.2017C456.635 70.4176 453.848 69.0966 452.041 67.2386C450.234 65.3636 449.339 62.9943 449.356 60.1307C449.339 57.7102 449.995 55.6136 451.325 53.8409C452.672 52.0511 454.538 50.6705 456.924 49.6989C459.328 48.7102 462.098 48.2159 465.234 48.2159C469.836 48.2159 473.458 49.196 476.1 51.1562C478.76 53.1165 480.404 55.767 481.035 59.108Z" fill="black"/>
<defs>
<linearGradient id="paint0_linear_286_4" x1="31.4813" y1="18.0442" x2="78.8531" y2="97.2661" gradientUnits="userSpaceOnUse">
<stop stop-color="#FF9E67"/>
<stop offset="0.468538" stop-color="#A566AF"/>
<stop offset="1" stop-color="#F636B5"/>
</linearGradient>
</defs>
</svg>
