<svg width="399" height="120" viewBox="0 0 399 120" fill="none" xmlns="http://www.w3.org/2000/svg">
<g clip-path="url(#clip0_286_4)">
<path fill-rule="evenodd" clip-rule="evenodd" d="M21.3484 42.7037C14.7532 49.6612 14.4561 61.325 21.2499 70.9274C25.6501 77.1468 29.3782 80.4398 32.6976 81.9384C35.8399 83.3571 38.9634 83.3214 42.6983 82.0224C46.5826 80.6715 50.9148 78.025 56.2337 74.3922C57.9398 73.2268 59.7484 71.9595 61.6581 70.6212C65.5618 67.8856 69.8882 64.8538 74.6255 61.7931C75.5907 61.1696 76.5459 60.5847 77.4919 60.037C77.5437 60.0049 77.5967 59.9743 77.6509 59.9452C82.7161 57.0313 87.497 55.1909 91.9297 54.2525C90.0733 53.3682 88.214 52.478 86.3752 51.5973C85.5102 51.1829 84.6487 50.7706 83.7948 50.362C76.596 46.9189 69.8993 43.7527 64.8563 41.7025C41.6774 32.2794 27.8148 35.8821 21.3484 42.7037ZM107.838 54.9674C102.01 52.3732 95.5334 49.2715 89.1903 46.234C88.3253 45.8196 87.4621 45.4064 86.6041 44.9959C79.4472 41.5727 72.5688 38.3174 67.3131 36.1809C43.0572 26.3198 25.7931 29.0782 16.6962 38.6748C7.72805 48.1355 8.02516 62.947 16.0496 74.2888C20.6994 80.8609 25.2023 85.1906 30.0164 87.3641C35.0073 89.6173 39.9197 89.374 44.8449 87.6614C49.6205 85.9999 54.5726 82.9017 59.8836 79.2742C61.7062 78.0294 63.5734 76.7207 65.5137 75.3605C69.3605 72.664 73.4955 69.7658 78.1407 66.7644C78.838 66.3143 79.5253 65.8883 80.2033 65.4855C84.3045 65.2175 88.4569 66.3901 92.5803 68.3904C96.9343 70.5027 101.008 73.4129 104.693 76.1411C105.053 76.4078 105.412 76.6742 105.767 76.9385C107.193 77.9978 108.572 79.0225 109.83 79.8923C111.374 80.9591 112.969 81.9607 114.472 82.5486C115.879 83.0989 118.139 83.643 120.183 82.3108C122.076 81.0774 122.664 78.9202 122.88 77.1124C123.81 69.3126 119.301 60.4722 110.642 56.1529C109.744 55.705 108.809 55.3085 107.838 54.9674ZM90.1933 60.9167C92.006 61.5024 93.7534 62.2305 95.4216 63.0397C100.361 65.436 104.85 68.6674 108.537 71.3971C108.924 71.6837 109.301 71.9634 109.667 72.2356C111.082 73.2868 112.348 74.2275 113.509 75.0302C114.831 75.944 115.834 76.5469 116.576 76.8803C116.6 76.7525 116.622 76.6043 116.642 76.4331C117.273 71.144 114.136 64.6644 107.737 61.4724C103.566 59.3916 97.6822 58.5834 90.1933 60.9167ZM117.339 77.1426C117.339 77.1426 117.328 77.143 117.302 77.1383C117.326 77.1393 117.339 77.1426 117.339 77.1426Z" fill="url(#paint0_linear_286_4)"/>
<path d="M182.101 53.9418H175.195C174.998 52.8092 174.634 51.8059 174.105 50.9318C173.576 50.0455 172.917 49.2945 172.129 48.679C171.341 48.0634 170.443 47.6018 169.433 47.294C168.436 46.974 167.359 46.8139 166.202 46.8139C164.146 46.8139 162.324 47.331 160.736 48.3651C159.148 49.3868 157.904 50.8887 157.006 52.8707C156.107 54.8404 155.658 57.2472 155.658 60.0909C155.658 62.9839 156.107 65.4214 157.006 67.4034C157.917 69.3731 159.16 70.8627 160.736 71.8722C162.324 72.8693 164.14 73.3679 166.183 73.3679C167.316 73.3679 168.375 73.2202 169.359 72.9247C170.357 72.617 171.249 72.1676 172.037 71.5767C172.837 70.9858 173.508 70.2595 174.05 69.3977C174.604 68.536 174.985 67.5511 175.195 66.4432L182.101 66.4801C181.842 68.2775 181.282 69.964 180.42 71.5398C179.571 73.1155 178.457 74.5066 177.078 75.7131C175.699 76.9072 174.087 77.8428 172.24 78.5199C170.393 79.1847 168.344 79.517 166.091 79.517C162.767 79.517 159.8 78.7476 157.19 77.2088C154.58 75.67 152.525 73.4479 151.023 70.5426C149.521 67.6373 148.77 64.1534 148.77 60.0909C148.77 56.0161 149.527 52.5322 151.041 49.6392C152.555 46.7339 154.617 44.5118 157.227 42.973C159.837 41.4342 162.792 40.6648 166.091 40.6648C168.196 40.6648 170.153 40.9602 171.963 41.5511C173.773 42.142 175.385 43.0099 176.801 44.1548C178.217 45.2874 179.38 46.6785 180.291 48.3281C181.214 49.9654 181.818 51.8366 182.101 53.9418ZM186.519 79V50.6364H193.001V55.3636H193.296C193.813 53.7263 194.7 52.4645 195.955 51.5781C197.223 50.6795 198.67 50.2301 200.295 50.2301C200.664 50.2301 201.076 50.2486 201.532 50.2855C202 50.3101 202.388 50.3532 202.695 50.4148V56.5639C202.412 56.4654 201.963 56.3793 201.347 56.3054C200.744 56.2192 200.159 56.1761 199.593 56.1761C198.374 56.1761 197.279 56.4408 196.306 56.9702C195.346 57.4872 194.589 58.2074 194.035 59.1307C193.481 60.054 193.204 61.1188 193.204 62.3253V79H186.519ZM205.576 79V50.6364H212.261V79H205.576ZM208.937 46.6108C207.878 46.6108 206.967 46.2599 206.204 45.5582C205.441 44.8442 205.059 43.9886 205.059 42.9915C205.059 41.982 205.441 41.1264 206.204 40.4247C206.967 39.7107 207.878 39.3537 208.937 39.3537C210.008 39.3537 210.919 39.7107 211.67 40.4247C212.433 41.1264 212.815 41.982 212.815 42.9915C212.815 43.9886 212.433 44.8442 211.67 45.5582C210.919 46.2599 210.008 46.6108 208.937 46.6108ZM239.993 58.1335L233.899 58.7983C233.726 58.1828 233.425 57.6042 232.994 57.0625C232.575 56.5208 232.009 56.0838 231.295 55.7514C230.581 55.419 229.707 55.2528 228.673 55.2528C227.282 55.2528 226.112 55.5544 225.164 56.1577C224.229 56.7609 223.767 57.5426 223.78 58.5028C223.767 59.3277 224.069 59.9986 224.684 60.5156C225.312 61.0327 226.346 61.4574 227.787 61.7898L232.625 62.8239C235.308 63.4025 237.303 64.3196 238.608 65.5753C239.925 66.831 240.59 68.4744 240.602 70.5057C240.59 72.2907 240.066 73.8665 239.032 75.233C238.011 76.5871 236.589 77.6458 234.767 78.4091C232.945 79.1723 230.852 79.554 228.488 79.554C225.017 79.554 222.222 78.8277 220.105 77.375C217.987 75.91 216.726 73.8726 216.319 71.2628L222.838 70.6349C223.133 71.9152 223.761 72.8816 224.721 73.5341C225.682 74.1866 226.931 74.5128 228.47 74.5128C230.058 74.5128 231.332 74.1866 232.292 73.5341C233.265 72.8816 233.751 72.0753 233.751 71.1151C233.751 70.3026 233.437 69.6316 232.809 69.1023C232.194 68.5729 231.234 68.1667 229.929 67.8835L225.091 66.8679C222.37 66.3016 220.357 65.3475 219.052 64.0057C217.747 62.6515 217.101 60.9403 217.113 58.8722C217.101 57.1241 217.575 55.6098 218.535 54.3295C219.508 53.0369 220.856 52.0398 222.579 51.3381C224.315 50.6241 226.316 50.267 228.581 50.267C231.905 50.267 234.521 50.9749 236.429 52.3906C238.349 53.8063 239.537 55.7206 239.993 58.1335ZM244.554 89.6364V50.6364H251.128V55.3267H251.516C251.86 54.6373 252.347 53.9048 252.974 53.1293C253.602 52.3414 254.452 51.6705 255.523 51.1165C256.594 50.5502 257.96 50.267 259.622 50.267C261.814 50.267 263.789 50.8272 265.55 51.9474C267.323 53.0554 268.726 54.6989 269.76 56.8778C270.806 59.0445 271.33 61.7036 271.33 64.8551C271.33 67.9697 270.819 70.6165 269.797 72.7955C268.775 74.9744 267.384 76.6364 265.624 77.7812C263.863 78.9261 261.869 79.4986 259.641 79.4986C258.016 79.4986 256.668 79.2277 255.597 78.6861C254.526 78.1444 253.664 77.492 253.011 76.7287C252.371 75.9531 251.873 75.2206 251.516 74.5312H251.239V89.6364H244.554ZM251.109 64.8182C251.109 66.6525 251.368 68.259 251.885 69.6378C252.414 71.0166 253.171 72.0937 254.156 72.8693C255.153 73.6326 256.36 74.0142 257.776 74.0142C259.253 74.0142 260.49 73.6203 261.487 72.8324C262.484 72.0322 263.235 70.9427 263.74 69.5639C264.257 68.1728 264.516 66.5909 264.516 64.8182C264.516 63.0578 264.263 61.4943 263.759 60.1278C263.254 58.7614 262.503 57.6903 261.506 56.9148C260.509 56.1392 259.265 55.7514 257.776 55.7514C256.348 55.7514 255.135 56.1269 254.138 56.8778C253.141 57.6288 252.384 58.6813 251.867 60.0355C251.362 61.3897 251.109 62.9839 251.109 64.8182ZM272.046 46.9247V41.1818H302.219V46.9247H290.53V79H283.734V46.9247H272.046ZM314.439 79.554C311.669 79.554 309.269 78.9446 307.237 77.7259C305.206 76.5071 303.63 74.8021 302.51 72.6108C301.402 70.4195 300.848 67.8589 300.848 64.929C300.848 61.9991 301.402 59.4323 302.51 57.2287C303.63 55.0251 305.206 53.3139 307.237 52.0952C309.269 50.8764 311.669 50.267 314.439 50.267C317.209 50.267 319.609 50.8764 321.641 52.0952C323.672 53.3139 325.242 55.0251 326.35 57.2287C327.47 59.4323 328.03 61.9991 328.03 64.929C328.03 67.8589 327.47 70.4195 326.35 72.6108C325.242 74.8021 323.672 76.5071 321.641 77.7259C319.609 78.9446 317.209 79.554 314.439 79.554ZM314.476 74.1989C315.978 74.1989 317.234 73.7865 318.243 72.9616C319.252 72.1245 320.003 71.0043 320.496 69.6009C321.001 68.1974 321.253 66.634 321.253 64.9105C321.253 63.1747 321.001 61.6051 320.496 60.2017C320.003 58.786 319.252 57.6596 318.243 56.8224C317.234 55.9853 315.978 55.5668 314.476 55.5668C312.937 55.5668 311.657 55.9853 310.635 56.8224C309.626 57.6596 308.868 58.786 308.364 60.2017C307.871 61.6051 307.625 63.1747 307.625 64.9105C307.625 66.634 307.871 68.1974 308.364 69.6009C308.868 71.0043 309.626 72.1245 310.635 72.9616C311.657 73.7865 312.937 74.1989 314.476 74.1989ZM344.516 79.554C341.746 79.554 339.345 78.9446 337.314 77.7259C335.283 76.5071 333.707 74.8021 332.587 72.6108C331.479 70.4195 330.925 67.8589 330.925 64.929C330.925 61.9991 331.479 59.4323 332.587 57.2287C333.707 55.0251 335.283 53.3139 337.314 52.0952C339.345 50.8764 341.746 50.267 344.516 50.267C347.286 50.267 349.686 50.8764 351.717 52.0952C353.749 53.3139 355.318 55.0251 356.426 57.2287C357.547 59.4323 358.107 61.9991 358.107 64.929C358.107 67.8589 357.547 70.4195 356.426 72.6108C355.318 74.8021 353.749 76.5071 351.717 77.7259C349.686 78.9446 347.286 79.554 344.516 79.554ZM344.553 74.1989C346.055 74.1989 347.31 73.7865 348.32 72.9616C349.329 72.1245 350.08 71.0043 350.573 69.6009C351.077 68.1974 351.33 66.634 351.33 64.9105C351.33 63.1747 351.077 61.6051 350.573 60.2017C350.08 58.786 349.329 57.6596 348.32 56.8224C347.31 55.9853 346.055 55.5668 344.553 55.5668C343.014 55.5668 341.734 55.9853 340.712 56.8224C339.702 57.6596 338.945 58.786 338.44 60.2017C337.948 61.6051 337.702 63.1747 337.702 64.9105C337.702 66.634 337.948 68.1974 338.44 69.6009C338.945 71.0043 339.702 72.1245 340.712 72.9616C341.734 73.7865 343.014 74.1989 344.553 74.1989ZM368.905 41.1818V79H362.22V41.1818H368.905ZM396.636 58.1335L390.543 58.7983C390.37 58.1828 390.069 57.6042 389.638 57.0625C389.219 56.5208 388.653 56.0838 387.939 55.7514C387.225 55.419 386.351 55.2528 385.317 55.2528C383.926 55.2528 382.756 55.5544 381.808 56.1577C380.873 56.7609 380.411 57.5426 380.423 58.5028C380.411 59.3277 380.713 59.9986 381.328 60.5156C381.956 61.0327 382.99 61.4574 384.431 61.7898L389.269 62.8239C391.952 63.4025 393.947 64.3196 395.252 65.5753C396.569 66.831 397.234 68.4744 397.246 70.5057C397.234 72.2907 396.71 73.8665 395.676 75.233C394.654 76.5871 393.233 77.6458 391.411 78.4091C389.589 79.1723 387.496 79.554 385.132 79.554C381.661 79.554 378.866 78.8277 376.749 77.375C374.631 75.91 373.369 73.8726 372.963 71.2628L379.482 70.6349C379.777 71.9152 380.405 72.8816 381.365 73.5341C382.325 74.1866 383.575 74.5128 385.114 74.5128C386.702 74.5128 387.976 74.1866 388.936 73.5341C389.909 72.8816 390.395 72.0753 390.395 71.1151C390.395 70.3026 390.081 69.6316 389.453 69.1023C388.838 68.5729 387.878 68.1667 386.573 67.8835L381.735 66.8679C379.014 66.3016 377.001 65.3475 375.696 64.0057C374.391 62.6515 373.745 60.9403 373.757 58.8722C373.745 57.1241 374.219 55.6098 375.179 54.3295C376.152 53.0369 377.5 52.0398 379.223 51.3381C380.959 50.6241 382.959 50.267 385.225 50.267C388.548 50.267 391.164 50.9749 393.073 52.3906C394.993 53.8063 396.181 55.7206 396.636 58.1335Z" fill="black"/>
</g>
<defs>
<linearGradient id="paint0_linear_286_4" x1="37.2035" y1="36.9964" x2="83.8484" y2="81.5995" gradientUnits="userSpaceOnUse">
<stop stop-color="#FF9E67"/>
<stop offset="0.525" stop-color="#A566AF"/>
<stop offset="1" stop-color="#F636B5"/>
</linearGradient>
<clipPath id="clip0_286_4">
<rect width="399" height="120" fill="white"/>
</clipPath>
</defs>
</svg>
